<svg version="1.1" id="Layer_1" xmlns="http://www.w3.org/2000/svg" x="0" y="0" viewBox="0 0 612 792" xml:space="preserve">
    <style>
        .st0{fill:#fff}
    </style>
    <path d="M119.6 189.72h372.8c.29.14.58.34.88.4 16.8 3.22 27.36 15.86 27.37 33 .02 115.74.02 231.48-.05 347.22 0 1.3-.7 2.93-1.63 3.86-34.85 35.16-69.77 70.25-104.63 105.39-1.42 1.44-2.83 1.94-4.81 1.94-65.39-.05-130.78-.04-196.16-.04-29.77 0-59.53-.01-89.3.01-5.72.01-11.16-1.15-16.1-4.03-11.63-6.78-17.16-17-17.15-30.47.04-140.91.02-281.83.03-422.74 0-1.17.01-2.34.07-3.51.64-13.27 9.14-24.73 21.72-29.14 2.25-.79 4.63-1.27 6.96-1.89zm382.58 364.35v-3.9c0-108.21 0-216.43-.01-324.64 0-1.59-.02-3.18-.18-4.76-.42-4.13-2.4-7.42-5.71-9.9-2.95-2.22-6.35-2.67-9.96-2.67-120.41.03-240.81.02-361.22.02-.59 0-1.17-.01-1.76.01-6.46.14-12.01 4.4-13.54 10.65-.51 2.08-.56 4.31-.56 6.47-.02 138.32-.02 276.64-.02 414.96 0 2.59-.03 5.19.01 7.78.12 9.44 6.01 15.28 15.47 15.28 88.8.01 177.6 0 266.4 0 .88 0 1.77-.07 2.84-.12v-3.23c0-24.25-.06-48.5.02-72.76.06-19.09 14.35-33.18 33.43-33.18h71.49c1-.01 1.98-.01 3.3-.01zm-7.73 18.49h-1.83c-21.65 0-43.29-.01-64.94.01-9.26.01-15.26 5.88-15.29 15.16-.07 21.65-.02 43.3-.01 64.95 0 .67.14 1.34.19 1.78 27.31-27.31 54.53-54.53 81.88-81.9z"/>
    <path class="st0" d="M494.45 572.56c-27.36 27.36-54.57 54.58-81.88 81.89-.05-.44-.19-1.11-.19-1.78-.01-21.65-.05-43.3.01-64.95.03-9.28 6.02-15.15 15.29-15.16 21.65-.02 43.29-.01 64.94-.01.59.01 1.17.01 1.83.01z"/>
    <path d="M225.32 469.5c-6.7 0-13.27.04-19.85-.08-.55-.01-1.36-1.06-1.56-1.76-2.06-7.22-4.02-14.47-6.01-21.71-.2-.72-.43-1.43-.66-2.22h-32.88c-1.51 5.45-3.04 10.97-4.55 16.49-.71 2.57-1.33 5.18-2.14 7.72-.2.62-1 1.49-1.54 1.5-6.34.1-12.68.07-19.27.07.21-.93.32-1.64.54-2.31 10.29-32.27 20.6-64.53 30.85-96.82.52-1.63 1.2-2.21 2.94-2.18 6.6.11 13.2.07 19.8.03 1.31-.01 2.07.23 2.54 1.69 10.56 32.97 21.18 65.92 31.79 98.88.02.06 0 .15 0 .7zm-44.55-86.06l-11.95 44.37h24.06c-4.02-14.7-7.99-29.26-12.11-44.37zm181.66 60.28h-32.85c-2.08 7.56-4.28 15.07-6.15 22.66-.62 2.53-1.64 3.29-4.2 3.19-5.59-.21-11.18-.07-17.18-.07.26-1.02.42-1.78.66-2.53 10.26-32.2 20.53-64.4 30.75-96.61.51-1.61 1.21-2.22 2.97-2.18 6.52.12 13.04.08 19.56.02 1.37-.01 2.05.36 2.5 1.75 10.62 32.79 21.28 65.56 31.94 98.33.07.23.07.48.14 1.01-.73.07-1.43.2-2.12.2-5.52.02-11.04-.08-16.55.06-1.91.05-2.53-.68-2.98-2.41-1.87-7.19-3.9-14.33-5.87-21.49-.2-.63-.41-1.25-.62-1.93zm-4.63-15.92c-4.02-14.72-7.95-29.12-11.96-43.8-3.99 14.81-7.86 29.21-11.79 43.8h23.75zm73.6 2.14c-.89 2.03-1.48 3.48-2.14 4.9-5.18 11.03-10.35 22.07-15.6 33.07-.32.68-1.25 1.51-1.91 1.52-6.59.11-13.18.07-20.17.07.53-1.1.88-1.89 1.3-2.65 8.57-15.87 17.13-31.76 25.77-47.59.88-1.61.81-2.76-.04-4.32-7.96-14.59-15.84-29.22-23.74-43.84-.43-.79-.83-1.6-1.38-2.67.84-.08 1.46-.18 2.07-.18 6.02-.01 12.04.06 18.06-.05 1.68-.03 2.49.54 3.2 2.05 5.04 10.73 10.18 21.41 15.29 32.11.39.82.82 1.61 1.44 2.82.51-.99.86-1.61 1.15-2.25 4.87-10.9 9.71-21.81 14.62-32.69.35-.79 1.24-1.88 1.9-1.89 6.58-.14 13.16-.09 20.06-.09-.49 1.05-.81 1.8-1.18 2.51-7.86 15.11-15.71 30.23-23.64 45.31-.86 1.64-.94 2.85.01 4.53 8.62 15.37 17.12 30.81 25.66 46.22.4.73.77 1.47 1.34 2.56-1.03.05-1.82.11-2.61.11-5.77.01-11.54-.08-17.31.05-1.88.04-2.8-.63-3.6-2.27-5.6-11.48-11.3-22.91-16.98-34.35-.41-.8-.84-1.59-1.57-2.99zm-203.42 23.65c4.41-3.23 8.9-6.52 13.48-9.87 1.22 1.66 2.25 3.26 3.47 4.7 4.26 5 9.68 6.62 16.01 5.17 3.9-.89 6.74-3.39 7.6-7.21.96-4.27 1.59-8.71 1.62-13.09.16-20.56.07-41.12.07-61.68v-3.16h20.29c.04.85.11 1.66.11 2.47.01 21.81.08 43.63-.06 65.44-.03 4.22-.53 8.53-1.51 12.64-3.14 13.19-12.43 21.12-25.94 22.35-14.59 1.33-26.45-3.36-34.46-16.17-.18-.28-.36-.56-.51-.86-.07-.15-.08-.32-.17-.73z"/>
    <path class="st0" d="M180.77 383.44c4.12 15.11 8.09 29.67 12.11 44.37h-24.06c3.95-14.69 7.86-29.21 11.95-44.37zM357.8 427.8h-23.75c3.93-14.59 7.8-28.98 11.79-43.8 4.01 14.68 7.94 29.08 11.96 43.8z"/>
</svg>
