<svg xmlns="http://www.w3.org/2000/svg" viewBox="0 0 612 792">
    <path d="M188.24 298.84c-12.55-13.83-12.26-25.29.24-39.24-1.01-.7-2.12-1.18-2.93-2.06-9-9.95-8.85-22.86.89-31.83 7.38-6.8 15.3-12.74 23.02-18.99 22.94-18.54 45.94-36.96 68.83-55.59 13.12-10.68 33.7-10.96 46.86-.32 29.73 24.04 59.49 48.03 89.18 72.13 2.42 1.96 4.79 4.29 6.61 7.01 5.62 8.41 4.98 18.58-1.35 26.2-1.17 1.41-2.44 2.71-3.64 4.03 12.18 17.43 12.21 22.25-.24 38.58.99.82 2.13 1.51 3.01 2.54 9.04 10.43 8.61 23.72-1.52 32.7-8.74 7.75-17.9 14.8-26.9 22.11-21.27 17.28-42.57 34.53-63.85 51.81-14.83 12.05-34.1 12.11-48.94.08-29.24-23.72-58.47-47.46-87.68-71.21-1.87-1.52-3.75-3.08-5.37-4.94-7.3-8.38-7.63-19.58-.82-28.55 1.31-1.73 3.04-2.97 4.6-4.46zm56.11-70.75c-.01.67-.02 1.34-.04 2.01.51.3 1.06.54 1.54.92 22.35 18.07 44.68 36.19 67.12 54.1 1.1.88 3.58.64 4.77-.29 9.12-7.09 18.24-14.2 27-21.91 3.55-3.12 6.65-7.36 9.14-11.76 2.97-5.24 2.89-11.61-.9-16.02-3.83-4.47-8.47-8.44-13.34-11-7.8-4.1-15.96-2.24-23.97 1.25 2.88-10.98.59-17.66-7.76-22.93-9.55-6.04-19.73-6.37-28.9-.46-11.99 7.71-23.15 17.3-34.66 26.09zm-82.31 221.27c4.06 3.03 6.37 7.18 6.61 12.93.42 10.06-4.71 16.93-13.09 17.11-5.63.12-11.25.02-16.88 0-.55 0-1.09-.18-1.94-.32-.14-1.29-.41-2.57-.41-3.86-.03-15.45.05-30.89-.08-46.34-.03-3.66.79-5.26 4.02-5.05 4.21.27 8.44.13 12.66.04 4.89-.1 8.98 1.78 11.22 7.25 2.29 5.59 1.85 11.18-1.17 16.36-.32.52-.56 1.1-.94 1.88zm-19.31 4.44c0 5.63-.12 10.82.11 16 .04.9 1.51 2.37 2.38 2.44 3.63.27 7.29.31 10.91.03 4.03-.32 6.69-4.32 6.64-9.38-.04-4.8-2.64-8.72-6.51-9.01-4.3-.33-8.63-.08-13.53-.08zm5.54-7.13c2.65 0 4.07.09 5.47-.02 4.18-.31 6.58-3.32 6.55-8.09-.03-4.57-2.26-7.36-6.34-7.75-1.54-.15-3.09-.09-4.64-.08-7.43.07-6.61-.79-6.63 7.82-.02 9.33-.52 7.99 5.59 8.12zm313.92-21.92v27.1c0 9.32 0 9.32 7.12 11.02.1.57.29 1.2.3 1.84.01 1.17-.1 2.35-.19 4.24-6.69-1.57-8.33 2.8-7.14 10.07h-6c-.12-.26-.23-.4-.25-.55-1.24-9.35-1.24-9.35-9.5-9.35-3.09 0-6.19.11-9.28-.04-3.84-.18-4.91-2.8-2.68-6.66 6.83-11.83 13.78-23.55 20.56-35.42 1.74-3.03 3.75-3.78 7.06-2.25zm-19.97 37.38c4.51 0 7.95.08 11.38-.07.63-.03 1.76-1.02 1.77-1.59.13-6.45.08-12.9.08-19.35-.36-.09-.73-.17-1.09-.26-3.85 6.72-7.69 13.45-12.14 21.27zm-55.43-17.62c7.91-5.07 15.12-4.2 20.06 3.09 4.95 7.29 4.94 19.19-.03 26.48-4.9 7.2-12.13 8.12-21.46 2.06v14.42c0 2.42.24 4.74-2.86 4.82-3.34.09-3.1-2.35-3.1-5 .02-14.1-.04-28.2.07-42.3.01-1.96.81-3.91 1.24-5.87 1.77.66 3.54 1.34 6.08 2.3zm-1.22 16.38c-.01 8.14 3.34 13.02 9.04 13.18 5.46.15 9.87-5.72 9.91-13.19.04-7.26-4.09-13.03-9.43-13.17-5.82-.16-9.51 4.95-9.52 13.18zm-20.28-16.17c2.39-1.24 4.31-2.24 6.9-3.58v39.08c-2.47-1.15-4.41-2.05-7-3.25-8.05 5.26-14.99 4.29-20.13-3.57-5.03-7.68-4.83-18.59.47-25.85 5.32-7.29 12.29-8.07 19.76-2.83zm1.14 16.27c.1-7.18-4.16-13.31-9.31-13.42-5.22-.11-9.53 5.75-9.58 13.04-.05 7.33 4.07 13.31 9.26 13.45 5.15.13 9.53-5.83 9.63-13.07zm-192.76-.41c.07-10.8 6.99-19.36 15.61-19.32 8.56.03 15.44 8.73 15.46 19.53.02 10.97-7.12 19.8-15.84 19.59-8.56-.21-15.3-8.97-15.23-19.8zm25.01.36c.07-7.18-4.24-13.28-9.4-13.3-5.24-.03-9.59 5.9-9.6 13.08-.01 7.23 4.22 13.23 9.41 13.34 5.15.11 9.52-5.88 9.59-13.12zm40.79-.27c.05 10.82-6.82 19.6-15.42 19.71-8.56.11-15.56-8.58-15.65-19.42-.09-10.83 6.8-19.63 15.41-19.68 8.64-.06 15.61 8.56 15.66 19.39zm-6.11-.14c-.08-7.23-4.48-13.07-9.71-12.87-5.15.19-9.43 6.39-9.29 13.47.14 7.14 4.66 13.12 9.78 12.92 5.17-.21 9.3-6.27 9.22-13.52zm54.71-10.36c-2.66 1.58-4.64 1.96-6.94-.9-1.08-1.34-3.92-1.13-5.85-.76-1.01.19-2.42 2.21-2.47 3.48-.05 1.22 1.19 3.12 2.24 3.7 2.54 1.4 5.34 2.09 7.98 3.26 3.79 1.68 6.82 4.24 6.61 9.86-.21 5.49-2.96 8.64-6.94 10.42-6.69 2.99-13.33.15-16.34-7.19 1.3-.84 2.61-1.68 3.92-2.53l-.12 1.06c2.93 1 5.84 2.65 8.79 2.72 1.51.04 3.08-2.74 4.62-4.25-1.24-1.59-2.26-3.76-3.78-4.66-2.75-1.62-5.97-2.08-8.7-3.74-5.61-3.4-6.11-10.98-1.29-15.86 6.06-6.14 15.33-3.54 18.27 5.39zm-40.55-17.95h5.27c.38 3.18-.1 7.14 1.3 8.79 1.43 1.68 4.69 1.09 7.41 1.53v5.28c-8.27 1.83-8.27 1.83-8.27 12.36 0 2.21.06 4.42-.01 6.62-.14 4.64.62 8.06 5.49 7.9 1.04-.03 2.13 2.18 3.39 3.57-7.89 5.34-14.16 1.37-14.68-8.4-.18-3.38-.07-6.79-.07-10.18-.01-3.38 0-6.75 0-10.39-1.15-.36-2.46-.31-2.85-1-.69-1.23-.82-2.92-1.19-4.42 5.43-1.38 3.74-6.8 4.21-11.66zm64.77 9.61v5.77c-.45.33-.67.63-.92.66-7.4.86-7.4.85-7.4 10.2 0 3.56-.03 7.13.04 10.69.06 3.41 1.4 5.59 4.41 5.32 2.91-.25 3.67 1.55 3.6 4.51-7.97 4.37-13.57.38-13.86-9.94-.15-5.26-.05-10.52-.05-15.78 0-2.4.27-4.83-2.78-5.06-.44-.03-.74-2.95-1.1-4.53 5.73-1.24 3.15-7.14 4.24-11.38h5.4c-1.11 7.58 1.04 11.8 8.42 9.54zm12.69 37.37h-5.67v-37.89c2.46 1.25 4.36 2.22 6.69 3.4 3.04-3.25 7.14-4.54 12.14-2.5-.36 1.88-.69 3.63-1.07 5.66-1.75 0-3.29-.23-4.77.04-4.42.81-7.21 4.64-7.3 10.15-.1 6.92-.02 13.83-.02 21.14z"/>
    <path d="M244.35 228.09c11.51-8.79 22.66-18.38 34.65-26.09 9.17-5.91 19.35-5.57 28.9.46 8.35 5.28 10.64 11.95 7.76 22.93 8.01-3.49 16.17-5.35 23.97-1.25 4.87 2.56 9.5 6.53 13.34 11 3.78 4.41 3.87 10.78.9 16.02-2.49 4.4-5.59 8.64-9.14 11.76-8.76 7.7-17.88 14.82-27 21.91-1.19.93-3.67 1.16-4.77.29-22.44-17.91-44.76-36.04-67.12-54.1-.47-.38-1.02-.61-1.54-.92.03-.67.04-1.34.05-2.01zm47 24.26c6.29 5.17 11.26 9.25 16.23 13.34 8.63 7.11 8.69 7.21 17.13.09 5.05-4.26 10.26-8.43 14.69-13.52 4.47-5.13 3.75-10.58-1.13-15.14-5.81-5.43-12.72-6.93-19.11-3.39-9.25 5.12-17.87 11.85-27.81 18.62zm-29.67-24.1c4.82 3.94 8.75 7.17 12.68 10.38 9.36 7.63 9.42 7.74 18.85-.12 3.8-3.17 7.63-6.49 10.8-10.48 3.81-4.79 3.1-9.97-1.22-13.99-6.28-5.85-13.33-5.94-19.91-1.84-7.09 4.4-13.57 10.19-21.2 16.05zM142.73 453.8c4.9 0 9.23-.25 13.53.07 3.87.29 6.47 4.21 6.51 9.01.05 5.07-2.62 9.06-6.64 9.38-3.63.29-7.29.24-10.91-.03-.87-.06-2.34-1.54-2.38-2.44-.23-5.17-.11-10.37-.11-15.99zm5.54-7.13c-6.11-.12-5.61 1.21-5.59-8.11.02-8.62-.8-7.76 6.63-7.82 1.55-.01 3.1-.07 4.64.08 4.08.39 6.32 3.17 6.34 7.75.03 4.77-2.37 7.77-6.55 8.09-1.41.1-2.82.01-5.47.01zm293.95 15.46c4.46-7.82 8.3-14.54 12.13-21.27.36.09.73.17 1.09.26 0 6.45.05 12.9-.08 19.35-.01.57-1.14 1.56-1.77 1.59-3.43.15-6.86.07-11.37.07zm-56.65-1.24c.01-8.23 3.7-13.34 9.52-13.19 5.34.14 9.47 5.91 9.43 13.17-.04 7.47-4.45 13.34-9.91 13.19-5.7-.15-9.05-5.02-9.04-13.17zm-19.14.1c-.1 7.24-4.49 13.19-9.62 13.06-5.18-.13-9.3-6.12-9.26-13.45.05-7.29 4.35-13.15 9.58-13.04 5.15.12 9.4 6.25 9.3 13.43zm-167.75-.05c-.07 7.24-4.44 13.23-9.58 13.12-5.19-.11-9.42-6.11-9.41-13.34.01-7.18 4.36-13.11 9.6-13.08 5.15.02 9.46 6.12 9.39 13.3zm34.68-.41c.08 7.26-4.05 13.32-9.22 13.52-5.11.2-9.64-5.78-9.78-12.92-.14-7.08 4.14-13.28 9.29-13.47 5.23-.2 9.63 5.63 9.71 12.87z" fill="#fff"/>
    <path d="M291.35 252.35c9.95-6.77 18.57-13.5 27.8-18.61 6.39-3.54 13.3-2.04 19.11 3.39 4.88 4.56 5.6 10 1.13 15.14-4.43 5.1-9.64 9.26-14.69 13.52-8.43 7.12-8.49 7.01-17.13-.09-4.97-4.1-9.94-8.19-16.22-13.35zm-29.67-24.1c7.63-5.86 14.11-11.65 21.19-16.06 6.58-4.1 13.63-4.01 19.91 1.84 4.32 4.03 5.03 9.2 1.22 13.99-3.17 3.99-7 7.31-10.8 10.48-9.42 7.86-9.48 7.76-18.85.12-3.92-3.2-7.85-6.43-12.67-10.37z"/>
</svg>
