<svg xmlns="http://www.w3.org/2000/svg" viewBox="0 0 612 792">
    <path d="M136.02 206.22H475.9c-.77 9.18-1.51 18.22-2.3 27.26-2.87 32.52-5.75 65.04-8.63 97.56-3.19 36-6.4 72-9.58 108.01-2.83 32.02-5.69 64.04-8.38 96.08-.91 10.83-.69 10.84-11.03 13.79-41.44 11.82-82.9 23.59-124.3 35.56-4.25 1.23-7.96.89-12.07-.29-43.02-12.4-86.07-24.7-129.14-36.9-3.1-.88-4.59-1.94-4.88-5.49-2.73-32.53-5.7-65.04-8.58-97.56-3.21-36.17-6.41-72.34-9.6-108.51-2.81-31.86-5.61-63.72-8.41-95.57-.97-11.13-1.95-22.24-2.98-33.94zm22.22 20.05c0 1.9-.13 3.54.02 5.15 4.18 47.11 8.44 94.22 12.59 141.34 4.49 50.93 8.94 101.87 13.27 152.82.32 3.76 1.71 5.38 5.32 6.4 37.14 10.48 74.21 21.21 111.37 31.63 3.29.92 7.29.93 10.58.01 37.16-10.42 74.23-21.15 111.36-31.64 3.41-.96 4.86-2.53 5.09-6.06.67-10.14 1.59-20.26 2.48-30.38 3.52-39.65 7.08-79.3 10.6-118.95 3.61-40.64 7.19-81.29 10.77-121.94.83-9.39 1.57-18.79 2.38-28.38H158.24z"/>
    <path d="M158.24 226.27h295.83c-.8 9.6-1.55 18.99-2.38 28.38-3.58 40.65-7.16 81.29-10.77 121.94-3.52 39.65-7.08 79.3-10.6 118.95-.9 10.12-1.82 20.24-2.48 30.38-.23 3.53-1.68 5.1-5.09 6.06-37.14 10.49-74.21 21.22-111.36 31.64-3.29.92-7.29.92-10.58-.01-37.16-10.42-74.23-21.15-111.37-31.63-3.6-1.02-5-2.64-5.32-6.4-4.32-50.95-8.77-101.89-13.27-152.82-4.16-47.12-8.41-94.23-12.59-141.34-.15-1.62-.02-3.26-.02-5.15zm65.75 199.97c1 17.85 1.92 35.3 3.12 52.72.08 1.14 2.17 2.63 3.61 3.11A9173.21 9173.21 0 00303.23 506c1.59.52 3.64.61 5.21.1 24.53-7.95 49.02-15.99 73.46-24.21 1.37-.46 2.97-2.59 3.08-4.04 1.16-15.12 2.05-30.25 2.99-45.39 2.23-35.92 4.46-71.84 6.67-107.76.79-12.74 1.53-25.49 2.3-38.37H213.99c1.04 13.38 2.06 26.41 3.1 39.77h137.88c-1.02 13.44-2 26.46-3.02 39.98h-92.01c.73 13.59 1.44 26.63 2.16 40.02h87.89c-1 14.66-1.91 28.9-3.06 43.13-.08 1-1.69 2.3-2.86 2.71-11.77 4.13-23.58 8.17-35.44 12.03-1.71.56-3.94.46-5.67-.11-11.53-3.79-22.97-7.9-34.51-11.67-2.69-.88-3.59-2.11-3.63-4.91-.11-6.95-.6-13.9-.95-21.06-13.28.02-26.21.02-39.88.02z" fill="#fff"/>
    <path d="M223.99 426.24h39.88c.35 7.16.84 14.11.95 21.06.04 2.79.94 4.03 3.63 4.91 11.54 3.77 22.97 7.87 34.51 11.67 1.73.57 3.96.67 5.67.11 11.86-3.86 23.67-7.9 35.44-12.03 1.17-.41 2.78-1.72 2.86-2.71 1.14-14.23 2.06-28.47 3.06-43.13H262.1c-.72-13.39-1.43-26.43-2.16-40.02h92.01c1.02-13.52 2.01-26.54 3.02-39.98H217.09c-1.04-13.36-2.06-26.39-3.1-39.77h182.95c-.77 12.88-1.52 25.63-2.3 38.37-2.22 35.92-4.44 71.84-6.67 107.76-.94 15.13-1.83 30.27-2.99 45.39-.11 1.46-1.72 3.58-3.08 4.04-24.44 8.22-48.94 16.26-73.46 24.21-1.57.51-3.62.42-5.21-.1-24.2-7.88-48.37-15.85-72.51-23.93-1.44-.48-3.53-1.97-3.61-3.11-1.2-17.45-2.11-34.89-3.12-52.74zm42.5-260.75l13.57 4.1c-.91 3.81-2.35 6.98-4.31 9.54-1.96 2.55-4.39 4.48-7.3 5.78s-6.6 1.95-11.09 1.95c-5.45 0-9.9-.79-13.35-2.37-3.45-1.58-6.43-4.37-8.94-8.35-2.51-3.98-3.76-9.09-3.76-15.3 0-8.29 2.2-14.66 6.61-19.11 4.41-4.45 10.65-6.68 18.71-6.68 6.31 0 11.27 1.28 14.89 3.83 3.61 2.55 6.29 6.47 8.05 11.76l-13.67 3.04c-.48-1.53-.98-2.64-1.5-3.35-.87-1.18-1.93-2.1-3.18-2.73-1.25-.64-2.65-.96-4.2-.96-3.51 0-6.2 1.41-8.07 4.23-1.41 2.09-2.12 5.38-2.12 9.87 0 5.55.84 9.36 2.53 11.42 1.69 2.06 4.06 3.09 7.11 3.09 2.96 0 5.2-.83 6.72-2.5 1.51-1.67 2.61-4.09 3.3-7.26zm18.39 3.93l14.73-.92c.32 2.39.97 4.22 1.95 5.47 1.59 2.03 3.87 3.04 6.84 3.04 2.21 0 3.91-.52 5.11-1.56 1.2-1.04 1.79-2.24 1.79-3.61 0-1.3-.57-2.46-1.71-3.49-1.14-1.03-3.78-1.99-7.93-2.91-6.79-1.53-11.63-3.55-14.53-6.08-2.92-2.53-4.38-5.75-4.38-9.67 0-2.57.75-5.01 2.24-7.3 1.49-2.29 3.74-4.09 6.73-5.4 3-1.31 7.1-1.97 12.32-1.97 6.4 0 11.29 1.19 14.65 3.57 3.36 2.38 5.36 6.17 6 11.36l-14.59.85c-.39-2.26-1.2-3.9-2.44-4.92s-2.96-1.54-5.14-1.54c-1.8 0-3.16.38-4.07 1.15-.91.76-1.37 1.69-1.37 2.79 0 .8.38 1.52 1.13 2.15.73.66 2.46 1.28 5.2 1.85 6.77 1.46 11.62 2.93 14.54 4.43 2.93 1.49 5.06 3.34 6.39 5.55s2 4.68 2 7.42c0 3.21-.89 6.18-2.67 8.89-1.78 2.71-4.26 4.77-7.45 6.17-3.19 1.4-7.21 2.1-12.07 2.1-8.52 0-14.42-1.64-17.71-4.92s-5.13-7.44-5.56-12.5zm50.55 0l14.73-.92c.32 2.39.97 4.22 1.95 5.47 1.59 2.03 3.87 3.04 6.84 3.04 2.21 0 3.91-.52 5.11-1.56 1.2-1.04 1.79-2.24 1.79-3.61 0-1.3-.57-2.46-1.71-3.49-1.14-1.03-3.78-1.99-7.93-2.91-6.79-1.53-11.63-3.55-14.53-6.08-2.92-2.53-4.38-5.75-4.38-9.67 0-2.57.75-5.01 2.24-7.3s3.74-4.09 6.73-5.4c3-1.31 7.1-1.97 12.32-1.97 6.4 0 11.28 1.19 14.65 3.57 3.36 2.38 5.36 6.17 6 11.36l-14.59.85c-.39-2.26-1.2-3.9-2.44-4.92-1.24-1.03-2.96-1.54-5.14-1.54-1.8 0-3.16.38-4.07 1.15-.91.76-1.37 1.69-1.37 2.79 0 .8.38 1.52 1.13 2.15.73.66 2.46 1.28 5.2 1.85 6.77 1.46 11.62 2.93 14.54 4.43 2.93 1.49 5.06 3.34 6.39 5.55s2 4.68 2 7.42c0 3.21-.89 6.18-2.67 8.89-1.78 2.71-4.26 4.77-7.45 6.17-3.19 1.4-7.21 2.1-12.07 2.1-8.52 0-14.42-1.64-17.71-4.92s-5.13-7.44-5.56-12.5z"/>
</svg>
