<svg xmlns="http://www.w3.org/2000/svg" viewBox="0 0 283.86 234.64">
    <path d="M108.12 165.51c5.2 3.09 10.21 6.13 15.31 9.07 4.29 2.47 8.99 4.06 14.13 4.5 6.78.58 13.02-.97 18.71-4.13 4.78-2.66 9.41-5.53 14.01-8.43 1.36-.86 2.22-.94 3.59.01 27.49 19.19 55.02 38.34 82.55 57.5 4.97 3.46 9.93 6.91 15.26 10.61H8.76c33.29-23.15 66.35-46.16 99.36-69.13zm175.7 65.07c-34.32-23.88-68.14-47.41-102.15-71.08.85-.55 1.56-1 2.27-1.45 24.76-15.94 49.6-31.78 74.22-47.87 8.84-5.78 17.21-12.13 24.57-20.1.44.84.84 1.44 1.06 2.08.14.42.03.91.03 1.37v137.05zM0 93c27.38 23.09 59.03 41.16 89.46 60.64 3 1.92 6.05 3.79 9.34 5.84-32.96 22.93-65.73 45.74-98.8 68.75V93zm40.74 17.13c-6.68-3.21-28.73-19.85-32.61-24.53.47-.37.93-.77 1.44-1.12 6.69-4.6 13.36-9.23 20.11-13.77 1.28-.86 1.7-1.76 1.69-3.14-.05-12.69-.03-25.37-.03-38.06v-2.45h3.01c18.83 0 37.66.03 56.49-.05 1.42-.01 3.07-.52 4.2-1.28 9.94-6.7 19.78-13.5 29.65-20.28 10.55-7.25 23.61-7.27 34.17-.03 9.94 6.81 19.84 13.66 29.83 20.4 1.07.72 2.66 1.19 4.01 1.2 18.91.08 37.81.05 56.72.05h2.83v2.56c0 12.69.02 25.37-.03 38.06-.01 1.31.42 2.16 1.61 2.97 5.92 3.98 11.77 8.04 17.64 12.08.7.48 1.38.97 2.26 1.59-8.91 9.27-19.82 16.32-30.81 24V35.72H40.73c.01 24.75.01 49.44.01 74.41z"/>
    <path d="M155.88 109.3c-7.82 6.1-16.49 6.68-25.69 3.49-4.04-1.4-6.93-4.09-8.58-7.64-2.61-5.62-2.57-11.34.28-16.85 3.02-5.84 8.8-8.33 15.7-8.98 5.26-.5 10.21.45 14.07 2.86 1.66-.84 2.93-1.93 4.35-2.11 3.92-.5 5.13.55 5.14 4.08.02 4.67-.07 9.33-.11 14-.01 1.05-.03 2.11.04 3.15.29 4.05 2.87 6.35 7.3 6.54 4.38.2 7.61-1.91 7.9-5.91.33-4.63.51-9.36-.23-13.93-1.4-8.72-7.57-14.08-17.14-16.19-10.56-2.33-21.25-2.38-31.83-.14-11.16 2.37-17.94 8.67-19.14 18.84-.57 4.85-.58 9.9.29 14.7 1.77 9.77 9.25 15.21 19.72 17.35 13.67 2.79 27.03 1.79 39.8-3.71 1.78-.77 3.7-1.36 5.63-1.79 1.66-.36 3.09.21 3.84 1.69.74 1.47 0 2.62-1.25 3.45-1.29.87-2.69 1.68-4.17 2.23-15.5 5.75-31.51 7.15-47.83 3.62-15.77-3.41-24.45-12.95-25.2-27.4-.23-4.49 0-9.12 1.02-13.5 2.49-10.61 10.34-17.27 21.8-20.47 14.53-4.05 29.22-3.89 43.67.31 12.42 3.61 19.01 11.57 19.85 23.04.31 4.24.23 8.56-.33 12.78-.86 6.45-5.79 10.25-13.15 10.83-5.89.48-11.27-.5-15.75-4.34zM128 94.92c-.11 11.68 7.55 15.16 16.65 13.36 3.64-.72 6.01-2.79 7.05-5.95 1.16-3.55 1.15-7.14.05-10.7-.72-2.34-2.29-4.17-4.89-5.05-4.18-1.42-8.49-1.5-12.63.02-5.24 1.91-6.18 6-6.23 8.32z"/>
    <path d="M128 94.92c.05-2.33 1-6.41 6.22-8.33 4.14-1.52 8.44-1.44 12.63-.02 2.6.88 4.17 2.71 4.89 5.05 1.1 3.56 1.11 7.15-.05 10.7-1.03 3.16-3.4 5.23-7.05 5.95-9.1 1.82-16.75-1.67-16.64-13.35z" fill="#fff"/>
</svg>
