<svg xmlns="http://www.w3.org/2000/svg" viewBox="0 0 460 233">
    <path d="M260.67 194.22h-90.29v10.73h-39.96v-10.52H80.11v-65.95h180.56v65.74zm-20.09-43.53c0 8.5-.09 16.66.02 24.83.13 9.39-1.79 7.97 7.74 8.19 2.39.06 2.94-1.07 2.92-3.46-.07-12.76-.08-25.52.01-38.29.02-2.52-.7-3.31-3-3.3-18.38.09-36.77.09-55.15 0-2.37-.01-2.99.95-2.97 3.36.07 12.76.09 25.52-.01 38.29-.02 2.81 1.04 3.48 3.35 3.41 4.7-.14 9.41-.18 14.11.01 2.62.11 3.43-.94 3.38-3.74-.12-7.7-.07-15.41-.03-23.12.04-7.41-.7-6.12 5.7-6.48 3.1-.17 3.9 1.03 3.84 4.27-.17 8.54 0 17.1-.08 25.64-.02 2.42.65 3.66 3 3.38.87-.1 1.75-.01 2.62-.01 5.75-.03 4.89.31 4.92-5.42.04-9.12.01-18.23.01-27.56h9.62zM140.1 194.67c6.38 0 12.39.08 18.38-.1.71-.02 1.91-1.42 1.99-2.29.26-2.7.1-5.45.1-8.6 5.89 0 11.33-.14 16.77.06 2.79.1 3.54-1.06 3.52-3.97-.11-12.4-.04-24.79-.06-37.19 0-1.17-.16-2.34-.25-3.53H140.1v55.62zm-20.42-43.97v24.67c0 8.99 0 8.94 8.27 8.34 1.83-.13 2.47-.85 2.46-2.84-.05-13.12-.04-26.23 0-39.35.01-1.91-.44-2.84-2.38-2.83-12.03.06-24.06.05-36.09.01-1.56 0-2.45.41-2.45 2.39.04 13.36-.01 26.72.09 40.07.01.83 1.07 2.34 1.66 2.36 6.19.17 12.38.11 18.88.11V150.7h9.56zm335.35 4.01c-.64 2.25-.71 4.94-3.85 5.27-2.48.26-5.03.57-7.38 1.44-10.34 3.81-12.95 13.85-6.17 23.29.88 1.23 1.73 2.49 2.71 3.63 2.34 2.7.9 4.72-.91 6.7-1.84 2.01-3.61 3.26-6.14.84-2.21-2.1-4.68-3.97-7.25-5.5-6.1-3.64-14.16-.14-16.36 7.1-.89 2.93-1.3 6.04-1.76 9.11-.72 4.79-3.97 6.97-7.65 4.35-1.4-1-2.06-3.94-2.29-6.09-.51-4.68-1.47-8.96-4.75-12.3-3.98-4.06-9.53-4.92-14.22-1.84-2.43 1.6-4.76 3.45-6.9 5.49-2.26 2.14-3.78.71-5.32-.88-1.64-1.69-3.21-3.54-1.58-6.23.85-1.4 1.82-2.7 2.78-4.02 3.33-4.57 5.16-9.53 3.07-15.37-2.19-6.14-6.93-8.28-12.35-9.26-1.29-.23-2.6-.36-3.91-.46-3.06-.22-3.81-2.8-3.79-5.29.02-2.5.89-4.82 3.92-5.22 3.22-.43 6.56-.9 9.53-2.22 7.06-3.15 9.53-12.09 5.61-19.23-.96-1.74-2.11-3.37-3.25-4.98-2.9-4.08-3-5.56-.45-8.41 2.59-2.89 3.95-2.72 7.65.27 2.45 1.97 4.96 4.28 7.77 5.18 7.93 2.52 15.06-3.81 16.01-13.67.15-1.55.33-3.1.42-4.66.2-3.4 2.6-4.15 4.84-4.11 2.09.04 4.33.78 4.6 4.02.23 2.73.72 5.45 1.25 8.14 1.95 10.08 12.52 14.93 21.43 6.63.58-.55 1.14-1.12 1.74-1.65 3.69-3.26 5.58-2.94 8.46 1.15 1.16 1.65 1.51 3.06.11 4.74-.96 1.15-1.77 2.44-2.64 3.68-3.36 4.8-5.52 9.87-3.02 16.01 2.44 5.99 7.09 8.16 12.6 8.83 1.19.15 2.38.36 3.58.41 2.98.13 3.21 2.71 3.86 5.11zm-51.93-27.72c-14.15-.79-25.39 13.88-25.58 27.37-.21 15.08 12.36 28.27 25.12 28.42 13.72.16 25.63-13.85 25.79-27.74.15-13.84-11.86-29.02-25.33-28.05zM360.53 21.78c2.02 1.62 3.55 3.28 5.39 4.21 2.49 1.26 5.24 2.78 7.84 2.71 5.45-.15 8.5-4.71 9.14-11.97.22-2.49-.14-5.53 3.41-5.87 2.79-.26 4.7.49 4.99 3.97.16 1.91.35 3.83.78 5.68 1.84 7.92 9.44 10.98 15.5 6.29 1.16-.9 2.34-1.81 3.37-2.88 2.01-2.08 3.66-1.83 5.6.28 2.01 2.18 1.88 3.98.12 6.16-2.42 2.99-4.67 6.16-4.54 10.48.19 6.25 4.3 10.28 10.99 10.89 4.87.44 6.22 1.73 5.35 5.73-.27 1.26-1.58 2.73-2.72 3.19-1.9.77-4.11.59-6.08 1.21-7.19 2.23-9.79 10.53-5.47 17.18.76 1.17 1.54 2.35 2.41 3.42 1.69 2.08 2.09 3.91.03 6.18-2.07 2.28-3.73 2.23-5.87.21-2.82-2.66-5.73-5.36-9.85-4.92-5.68.61-8.97 4.89-9.45 12.2-.35 5.28-1.79 6.86-5.62 5.68-.99-.3-2.12-1.57-2.44-2.66-.66-2.26-.66-4.74-1.21-7.05-1.71-7.19-8.7-10.36-14.55-6.61-1.5.96-2.92 2.15-4.21 3.44-1.99 1.98-3.63 2.01-5.61-.17-1.94-2.15-1.76-3.76-.28-6.21 1.88-3.11 4-6.56 4.45-10.1.79-6.31-3.93-10.63-11.06-11.29-4.76-.44-6.11-2.06-4.96-6.37.27-1 1.32-2.15 2.23-2.46 2.07-.69 4.31-.73 6.41-1.33 6.99-1.98 9.79-10.3 5.71-16.85-1.05-1.69-2.41-3.16-3.29-4.94-.47-.95-.69-2.66-.23-3.45.9-1.48 2.37-2.59 3.72-3.98zm26.56 56.72c11.32.01 20.07-9.45 20.1-21.71.03-12.77-8.44-22.34-19.81-22.37-11.61-.03-20.23 9.29-20.25 21.88-.01 12.75 8.47 22.19 19.96 22.2zm-41.85 37.2c-.79 1.24-1.83 2.76-2.77 4.36-2.56 4.3-1.91 9.33 1.76 11.71 1.53.99 3.49 1.26 5.3 1.63 1.73.36 3.16.68 3.21 3.18.05 2.68-1.37 3.29-3.32 3.38-8.36.4-11.07 8.83-5.75 15.25 1.21 1.46 2.38 2.93.62 4.96-1.88 2.18-3.23.74-4.77-.54-4.68-3.9-8.74-4.11-11.59-.13-1.25 1.75-1.68 4.33-2.12 6.62-.4 2.04-.76 3.94-3.02 3.95-2.26.01-2.52-1.96-3.05-3.93-.71-2.66-1.47-5.61-3.06-7.61-2.32-2.89-5.94-2.35-9.58.19-1.68 1.17-3.12 4.46-5.76 1.42-2.45-2.82.31-4.31 1.37-6.08 2.81-4.7 2.63-9.38-1.01-12.14-1.45-1.1-3.41-1.53-5.2-1.88-1.92-.38-3.96-.53-4.02-3.23-.07-2.95 2.07-3.15 4.13-3.45 7.93-1.16 10.36-7.58 5.63-14.69-.52-.78-1.38-1.5-1.47-2.33-.11-1 .14-2.39.75-3.06.6-.67 1.9-1 2.77-.82.87.18 1.59 1.19 2.39 1.82 6.16 4.87 11.94 2.2 13.08-6.04.08-.59-.11-1.39.17-1.76.9-1.15 1.86-2.74 3.01-2.98.72-.15 2.05 1.66 2.65 2.87.54 1.09.39 2.58.68 3.86 1.35 5.94 6.43 8.28 11.19 5.12 1.21-.81 2.26-1.92 3.46-2.74 1.62-1.11 4.28.54 4.32 3.09zm-22.42 37.25c8.7 0 14.75-6.73 14.74-16.39-.01-9.4-6.1-16.11-14.64-16.12-8.78-.02-14.9 6.64-14.9 16.21-.01 9.62 6.06 16.31 14.8 16.3zm-207.14-79.2v30.16h-3.76V26.27c1.08-.08 2.1-.15 3.54-.25v11.63c.84-.81 1.22-1.02 1.37-1.35 6.8-15.42 28.63-15.25 36.95-.8 6.11 10.59 5.89 29.52-.61 39.85-7.91 12.57-30.47 12.35-36.37-.98-.14-.31-.24-.64-.36-.97-.24.12-.5.23-.76.35zm-.28-19.99c.43 4.28.61 7.41 1.09 10.47 1.35 8.69 6.9 14.87 14.33 16.14 9.19 1.58 16.72-2.11 20.51-10.33 4.26-9.23 4.3-18.83.95-28.3-3.21-9.06-9.37-13.23-18.08-13.11-7.83.11-13.78 4.52-16.6 13.19-1.35 4.12-1.62 8.64-2.2 11.94zm-58.27 1.78h-42.3c.37 8.81 1.95 16.67 8.76 21.72 6.2 4.6 12.98 4.58 19.7 1.31 4.72-2.3 7.32-6.78 8.88-11.93.81-2.66 1.99-3.45 4.28-2.42-.9 11.34-9.46 19.85-20.42 20.35-13.18.59-21.88-7.03-24.33-21.27-1.62-9.42-.91-18.53 3.58-26.85 5.15-9.55 14.76-13.62 24.95-11.04 9.25 2.34 15.84 11.32 16.87 23.13.19 2.12.03 4.28.03 7zm-41.71-4.32h37.76c-.55-14.44-8.4-23.18-19.97-22.58-10.16.54-18.5 11.1-17.79 22.58zm221.87 13.04c-.79 11.47-9.38 19.9-20.52 20.31-12.58.47-20.96-6.32-23.85-19.78-2.02-9.41-1.43-18.69 2.81-27.37 4.54-9.29 13.48-14.06 23.2-12.56 9.04 1.39 15.89 8.23 18.07 18.41.81 3.79 1.01 7.74 1.56 12.14h-42.2c-1.85 10.61 4.66 22.01 13.78 24.68 10.11 2.96 19.69-2.48 22.85-13.14.73-2.42 1.57-3.89 4.3-2.69zm-3.23-12.94c.36-12.47-7.65-22.56-17.8-22.69-11.47-.14-20.08 9.5-20.05 22.69h37.85zm60.34 13.33h3.36c4.05 14.51 14.86 20.02 27.75 14.08 3.76-1.73 6.32-4.7 6.59-9.48.28-4.83-1.79-8.27-5.69-9.95-3.74-1.61-7.73-2.49-11.59-3.74-4.07-1.32-8.26-2.34-12.14-4.17-5.16-2.44-6.88-7.35-6.49-13.34.37-5.77 3.44-9.32 8.02-11.24 6.88-2.88 13.95-3 20.89-.24 5.78 2.3 9.88 9.48 9 16.13-.45.11-.96.31-1.48.34-.53.04-1.07-.09-1.71-.15-.15-.66-.33-1.22-.39-1.79-.71-6.79-4.45-10.62-10.25-11.94-4.76-1.08-9.57-.99-14.18 1.21-3.87 1.85-6.29 5.37-6.16 9.34.14 4.49 2.32 7.67 6.08 8.93 5.84 1.95 11.85 3.32 17.76 5.03 4.65 1.35 9 3.34 11.05 8.68 3.29 8.55-.28 17.3-8.44 20.3-6.36 2.34-12.85 2.72-19.37.55-7.69-2.53-12.36-9.2-12.61-18.55zm-9.28-21.76h-2.99c-.21-.28-.43-.44-.46-.64-1.36-9.27-5.62-13.61-14.16-13.51-3.73.05-7.63.78-11.13 2.17-3.44 1.36-5.52 4.63-5.41 9.03.11 4.26 2.29 7.12 5.66 8.48 3.98 1.6 8.17 2.54 12.27 3.77 3.37 1.01 6.82 1.76 10.07 3.11 5.09 2.12 7.7 6.43 8.01 12.45.32 6.21-2.02 11.02-7 13.56-9.01 4.59-18.23 4.95-27.01-.79-5.2-3.4-7.31-9-7.58-15.82 1.11-.09 2.16-.17 3.36-.26.45 1.68.54 3.53 1.37 4.78 2.07 3.12 4 6.89 6.86 8.75 6.66 4.32 13.89 3.6 20.78.08 3.4-1.74 5.34-4.89 5.38-9.19.04-4.08-1.32-7.48-4.86-9.01-3.93-1.7-8.05-2.87-12.1-4.22-4.06-1.35-8.3-2.21-12.18-4.03-5.38-2.52-7.32-7.6-6.74-13.87.53-5.85 3.81-9.34 8.56-11.17 6.48-2.5 13.09-2.54 19.66-.26 6.19 2.15 10.01 8.61 9.64 16.59zM79.62 53.16c-6.19-8.87-12.29-17.62-18.59-26.64 2.99-1 5.07-.7 6.9 2.15 3.9 6.1 8.06 11.99 12.13 17.96.64.93 1.35 1.81 2.33 3.11 3.95-5.73 7.69-11.15 11.42-16.58.99-1.44 1.95-2.9 2.95-4.33 2.14-3.09 2.14-3.08 6.51-2.4-2.2 3.23-4.25 6.28-6.33 9.3-3.37 4.89-6.63 9.88-10.19 14.6-1.68 2.23-1.4 3.71.08 5.83 5.74 8.19 11.33 16.52 16.96 24.8.37.55.69 1.14 1.15 1.91-3.06.95-5.04.36-6.85-2.53-4.95-7.9-10.22-15.56-15.66-23.76-1.43 1.96-2.68 3.56-3.82 5.25-4.2 6.16-8.45 12.28-12.5 18.56-1.61 2.5-3.37 3.58-6.53 2.42 6.69-9.92 13.31-19.7 20.04-29.65zm87.77-26.9h3.75v10.75c5.02-7.58 11.46-11.2 20.11-11 .06 1.2.12 2.29.13 2.44-4.59 2.02-9.04 3.16-12.62 5.76-5.7 4.14-7.65 10.85-7.67 18.2-.03 10.09-.01 20.17-.01 30.55h-3.7c.01-18.87.01-37.58.01-56.7z"/>
    <path d="M240.58 150.69h-9.61c0 9.33.03 18.45-.01 27.56-.03 5.73.84 5.39-4.92 5.42-.88 0-1.76-.09-2.62.01-2.35.28-3.02-.95-3-3.38.08-8.55-.09-17.1.08-25.64.06-3.24-.74-4.44-3.84-4.27-6.4.36-5.66-.94-5.7 6.48-.04 7.71-.09 15.41.03 23.12.05 2.8-.76 3.85-3.38 3.74-4.7-.19-9.41-.15-14.11-.01-2.31.07-3.37-.6-3.35-3.41.1-12.76.08-25.52.01-38.29-.01-2.41.6-3.37 2.97-3.36 18.38.09 36.77.09 55.15 0 2.3-.01 3.02.78 3 3.3-.09 12.76-.08 25.52-.01 38.29.01 2.39-.53 3.52-2.92 3.46-9.53-.22-7.61 1.2-7.74-8.19-.13-8.17-.03-16.33-.03-24.83zM140.1 194.67v-55.63h40.45c.09 1.2.24 2.37.25 3.53.02 12.4-.05 24.79.06 37.19.03 2.91-.72 4.08-3.52 3.97-5.43-.2-10.88-.06-16.77-.06 0 3.16.17 5.91-.1 8.6-.08.86-1.28 2.26-1.99 2.29-6 .19-12 .11-18.38.11zm20.7-43.96v21h9.14v-21h-9.14zm-41.12-.01h-9.56v32.93c-6.5 0-12.69.07-18.88-.11-.6-.02-1.66-1.53-1.66-2.36-.1-13.36-.06-26.71-.09-40.07-.01-1.98.88-2.39 2.45-2.39 12.03.04 24.06.05 36.09-.01 1.94-.01 2.39.93 2.38 2.83-.04 13.12-.05 26.23 0 39.35.01 1.99-.63 2.7-2.46 2.84-8.28.6-8.27.65-8.27-8.34V150.7zm283.42-23.71c13.47-.97 25.49 14.21 25.33 28.05-.16 13.89-12.07 27.9-25.79 27.74-12.76-.15-25.33-13.34-25.12-28.42.18-13.49 11.42-28.16 25.58-27.37zM387.09 78.5c-11.49-.01-19.97-9.44-19.95-22.2.02-12.58 8.64-21.9 20.25-21.88 11.37.02 19.84 9.6 19.81 22.37-.04 12.26-8.79 21.72-20.11 21.71zm-64.27 74.45c-8.74.01-14.82-6.68-14.81-16.3.01-9.57 6.13-16.23 14.9-16.21 8.54.02 14.63 6.72 14.64 16.12.02 9.66-6.03 16.39-14.73 16.39zM115.4 53.76c.57-3.29.85-7.82 2.19-11.93 2.82-8.67 8.77-13.09 16.6-13.19 8.72-.12 14.88 4.05 18.08 13.11 3.35 9.47 3.31 19.07-.95 28.3-3.79 8.22-11.32 11.91-20.51 10.33-7.43-1.27-12.97-7.45-14.33-16.14-.47-3.08-.64-6.2-1.08-10.48zm-99.98-2.54c-.71-11.49 7.63-22.04 17.8-22.58 11.57-.61 19.41 8.14 19.97 22.58H15.42zm218.64.1h-37.85c-.03-13.19 8.58-22.83 20.05-22.69 10.15.13 18.17 10.22 17.8 22.69z" fill="#fff"/>
    <path d="M160.8 150.71h9.14v21h-9.14v-21z"/>
</svg>
