<svg xmlns="http://www.w3.org/2000/svg" viewBox="0 0 612 792">
    <path d="M298.01 120.79H336c.48.9 1.35.77 2.16.83 35.12 2.69 68.39 12.09 99.18 29.11C509.31 190.54 553.42 250.9 569 331.82c1.65 8.56 2.62 17.25 3.9 25.88v38.99c-1.9 7.21-1.97 14.68-3.2 21.99-18.11 107.37-101.51 191.53-208.22 210.26-4.11.72-4.57-.24-4.56-3.91.1-56.48.13-112.96-.04-169.44-.01-4.43 1.43-5.07 5.35-5.02 16.32.21 32.66-.09 48.98.21 4.46.08 5.82-1.33 6.43-5.57 3.05-21.25 6.3-42.47 9.8-63.64.67-4.08-.08-5-4.16-4.97-20.66.19-41.32.08-61.98.1-2.36 0-4.45.44-4.38-3.37.27-15.99-.17-31.99.36-47.97.67-20.25 12.81-33.26 32.73-35.84 12.27-1.59 24.62-.57 36.94-.73 2.74-.04 4.15-.27 4.12-3.68-.18-18.66-.12-37.32-.03-55.98.01-2.43-.63-3.45-3.16-3.82-24.09-3.52-48.26-6.6-72.6-3.38-22.14 2.92-41.53 11.75-56.26 29.2-15.56 18.44-21.36 40.36-21.89 63.87-.42 18.82-.27 37.65.05 56.47.08 4.64-1.4 5.37-5.57 5.32-18.49-.22-36.99-.02-55.48-.17-3.3-.03-4.15.94-4.13 4.17.14 21.82.19 43.65-.04 65.47-.04 4.07 1.45 4.5 4.87 4.47 18.49-.15 36.99.01 55.48-.14 3.47-.03 4.85.48 4.84 4.5-.15 56.81-.12 113.62-.05 170.44 0 3.19-.45 4.15-4.05 3.5-56.27-10.13-104.12-35.94-143.14-77.59C95.32 514.55 73.59 471 64.89 421.11c-1.42-8.12-2.53-16.28-3.79-24.43V356.7c1.12-.61.8-1.73.88-2.66 3.01-34.55 12.27-67.35 29.06-97.68 39.83-71.97 100.17-116.09 181.09-131.67 8.56-1.65 17.25-2.62 25.88-3.9z"/>
</svg>
