<svg xmlns="http://www.w3.org/2000/svg" viewBox="0 0 612 792">
    <path d="M121.31 367.91c.88-6.4 1.64-12.82 2.66-19.19 4.03-25.03 13.62-47.84 27.94-68.67 21.66-31.52 50.7-53.59 86.64-66.41 24.4-8.7 49.62-11.15 75.4-8.74 32.11 3.01 60.99 14.35 86.78 33.52 31.37 23.33 52.58 53.92 63.76 91.35 7.17 24.03 8.72 48.61 5.26 73.4-6.82 48.9-31.09 87.59-70 117.33-14.11 10.79-29.99 18.51-46.8 24.25-7.71 2.64-12.94-1.06-12.97-9.19-.06-15.16.02-30.31-.04-45.47-.03-7.55-.45-15.12-3.74-22.05-1.92-4.05-4.6-7.75-6.96-11.63 6.38-1.19 13.33-2.08 20.06-3.81 17.83-4.6 33.81-12.51 44.63-28.16 7.87-11.39 11.52-24.44 13.12-38.03 1.22-10.31 1.57-20.66-.41-30.96-2.21-11.45-7.14-21.56-14.8-30.31-1.39-1.58-1.62-2.89-.94-4.84 5.03-14.4 3.09-28.49-2.25-42.35-.33-.85-1.77-1.66-2.79-1.8-6.08-.86-11.84.86-17.18 3.37-8.83 4.16-17.36 8.95-26.11 13.29-1.56.77-3.72 1.26-5.34.86-27.29-6.82-54.53-6.83-81.82.03-1.61.41-3.89-.05-5.32-.95-11.12-7.07-22.85-12.72-35.62-16.08-.22-.06-.43-.14-.66-.19-8.17-1.72-9.62-.8-11.96 7.22-3.64 12.44-4.29 24.83.06 37.27.35 1 .03 2.75-.67 3.54-14.69 16.7-18.02 36.46-16.01 57.8 1.17 12.49 4.12 24.43 9.72 35.68 7.89 15.84 21.23 25.51 37.37 31.1 9.59 3.32 19.86 4.71 29.82 6.96.52.12 1.06.18 1.15.19-2.55 4.63-5.18 9.21-7.58 13.9-.81 1.59-1.43 3.45-1.5 5.21-.15 3.69-2.08 5.36-5.43 6.26-11.09 3-22.08 4.94-32.69-1.57-5.57-3.42-9.71-8.2-12.99-13.78-5.04-8.59-12.12-14.88-21.69-17.71-3.54-1.05-7.58-.76-11.36-.54-2.31.14-3.05 2.01-1.5 3.96 1.55 1.93 3.09 4.15 5.16 5.35 9.39 5.44 14.67 14.07 18.88 23.56 2.41 5.42 4.67 10.83 9.26 14.95 7.35 6.6 16.23 9.1 25.73 9.53 8.24.37 16.51.08 25.31.08 0 4.96-.02 10.74.01 16.52.02 4.44.17 8.89.16 13.33-.02 8.2-5.42 12.16-13.18 9.52-25.87-8.81-48.64-22.71-67.73-42.31-18.51-19.01-32.65-40.83-41.37-66.03-4.95-14.28-7.82-28.98-8.96-44.03-.1-1.34-.35-2.67-.54-4 .03-6.85.03-13.69.03-20.53z"/>
</svg>
