<svg xmlns="http://www.w3.org/2000/svg" viewBox="0 0 612 792">
    <path d="M146.62 214.65H463.4c0 1.3.08 2.4-.01 3.48-5.47 62.22-10.92 124.45-16.45 186.66-3.84 43.3-7.82 86.59-11.62 129.9-.24 2.78-1.12 3.97-3.84 4.73-41.22 11.39-82.41 22.94-123.64 34.3-2.25.62-4.99.35-7.29-.28-40.28-11.07-80.51-22.3-120.79-33.34-3.34-.92-4.73-2.08-5.05-5.82-4.5-52.44-9.21-104.86-13.88-157.29-4.73-53.09-9.47-106.17-14.2-159.26-.07-.82-.01-1.64-.01-3.08zm287.99 26.68H176.17c2.81 31.59 5.58 62.76 8.35 93.93 2.83 31.84 5.67 63.68 8.49 95.53 2.45 27.7 4.91 55.39 7.25 83.1.25 2.99 1.54 4.26 4.32 5.02 32.41 8.88 64.79 17.88 97.21 26.73 2.13.58 4.69.68 6.81.11 32.58-8.88 65.12-17.93 97.69-26.85 2.77-.76 3.9-1.99 4.16-5.01 3.13-36.33 6.42-72.65 9.67-108.97 3.22-35.99 6.44-71.97 9.64-107.96 1.63-18.4 3.21-36.8 4.85-55.63z"/>
    <path d="M434.61 241.33c-1.64 18.83-3.22 37.24-4.85 55.64-3.2 35.99-6.42 71.98-9.64 107.96-3.25 36.32-6.54 72.64-9.67 108.97-.26 3.01-1.39 4.25-4.16 5.01-32.57 8.92-65.11 17.97-97.69 26.85-2.12.58-4.67.48-6.81-.11-32.42-8.85-64.8-17.85-97.21-26.73-2.78-.76-4.07-2.03-4.32-5.02-2.34-27.71-4.8-55.4-7.25-83.1-2.82-31.84-5.66-63.68-8.49-95.53-2.77-31.17-5.54-62.34-8.35-93.93 86.07-.01 171.94-.01 258.44-.01zM218.4 421.08c-.09.74-.23 1.22-.19 1.68 1.67 18.91 3.45 37.81 4.98 56.73.28 3.48 2.26 4.25 5.02 5 24.4 6.67 48.76 13.5 73.19 20.08 2.56.69 5.63.64 8.2-.06 24.25-6.57 48.42-13.43 72.67-19.99 3.46-.94 4.69-2.3 5.01-5.97 2.35-27.21 5.01-54.39 7.53-81.58 1.1-11.86 2.11-23.74 3.2-36.16H253.12c-1.27-13.55-2.5-26.6-3.79-40.36h139.85c11.99 0 12.11.01 13.4-11.83 1-9.21 1.64-18.47 2.45-27.84H205.76c3.54 40.27 7.04 80.14 10.58 120.36H354.1c-1.42 16.5-2.73 32.59-4.32 48.65-.12 1.23-2.04 2.88-3.43 3.28-12.8 3.66-25.65 7.15-38.53 10.49-1.8.47-3.97.19-5.82-.29-12.08-3.13-24.1-6.51-36.2-9.56-3.4-.86-4.84-2.21-5.03-5.95-.47-8.91-1.56-17.79-2.4-26.68H218.4z" fill="#fff"/>
    <path d="M218.4 421.08h39.95c.84 8.89 1.94 17.77 2.4 26.68.2 3.74 1.64 5.09 5.03 5.95 12.1 3.05 24.12 6.43 36.2 9.56 1.86.48 4.02.76 5.82.29 12.88-3.34 25.73-6.83 38.53-10.49 1.39-.4 3.31-2.05 3.43-3.28 1.59-16.06 2.9-32.15 4.32-48.65H216.32c-3.53-40.22-7.04-80.09-10.58-120.36h199.27c-.81 9.37-1.45 18.62-2.45 27.84-1.29 11.85-1.41 11.83-13.4 11.83H249.31c1.29 13.76 2.52 26.81 3.79 40.36h144.89c-1.1 12.43-2.1 24.3-3.2 36.16-2.52 27.19-5.18 54.38-7.53 81.58-.32 3.66-1.55 5.03-5.01 5.97-24.25 6.56-48.42 13.42-72.67 19.99-2.57.7-5.64.75-8.2.06-24.43-6.58-48.79-13.41-73.19-20.08-2.75-.75-4.73-1.52-5.02-5-1.54-18.92-3.31-37.82-4.98-56.73-.02-.47.12-.94.21-1.68zm-20.2-282.19h15.48v17.53h16.92v-17.53h15.55V189H230.6v-20.27h-16.92V189H198.2v-50.11zm54.72 0h47.07v12.37H284.2V189h-15.48v-37.73h-15.79v-12.38zm53.9 0h20.36l7.85 30.49 7.8-30.49h20.35V189H350.5v-38.21L340.73 189h-11.48l-9.75-38.21V189h-12.68v-50.11zm66.24 0h15.48v37.77h24.17V189h-39.65v-50.11z"/>
</svg>
