<svg xmlns="http://www.w3.org/2000/svg" viewBox="0 0 612 792">
    <path d="M521.01 396.47V580.5c0 19.58-11.02 30.54-30.71 30.54H121.81c-19.97 0-30.91-10.91-30.91-30.85V211.62c0-19.93 10.92-30.78 30.97-30.78h368.49c19.67 0 30.65 10.95 30.65 30.59v185.04zm-20.41-.03V212.88c0-10.21-1.42-11.66-11.5-11.66H122.56c-9.75 0-11.27 1.54-11.27 11.39v366.62c0 9.84 1.55 11.41 11.25 11.41h366.54c10.09 0 11.52-1.45 11.52-11.64V396.44z"/>
    <path d="M500.6 396.44V579c0 10.19-1.43 11.64-11.52 11.64H122.54c-9.71 0-11.25-1.57-11.25-11.41V212.61c0-9.85 1.52-11.39 11.27-11.39H489.1c10.08 0 11.5 1.44 11.5 11.66v183.56zm-32.36 10.54c-6.3-13.26-18.12-23.63-31.62-28.07-11.31-3.73-22.95-4.25-34.58-2.63-14.14 1.97-26.27 8-35.61 19.23-15.79 19-16.37 58.68 12.78 77.55 9.57 6.2 20.28 10.64 30.46 15.89 7.23 3.73 14.76 7 21.6 11.33 6.89 4.36 8.78 11.57 7.48 19.35-1.29 7.71-6.44 12.38-13.74 14.27-14.64 3.79-27.45.58-37.44-11.22-3.64-4.29-6.73-9.05-10.25-13.83-10.11 6.74-20.17 13.46-30.35 20.24 10.5 20.52 26.13 33.89 48.43 38.89 11.51 2.58 23.11 2.6 34.77 1.01 35.32-4.8 54.6-30.71 48.79-65.83-2.83-17.1-13.14-29.05-27.71-37.12-12.05-6.67-24.9-11.89-37.24-18.06-5.16-2.59-10.38-5.45-14.73-9.17-5.45-4.66-6.2-11.31-4.06-17.94 2.09-6.48 7.1-9.96 13.69-10.91 10.63-1.54 19.39 1.74 25.67 10.75 1.22 1.75 2.43 3.51 3.78 5.45 10.15-6.51 20.05-12.87 29.88-19.18zm-182.75-31.17v6.64c0 39.32.02 78.64-.03 117.97 0 4.16-.12 8.35-.65 12.47-1.23 9.6-6.33 14.93-15.09 15.97-10.21 1.21-19.18-1.56-26.37-9.06-2.85-2.98-5.25-6.4-8.1-9.91-10.52 6.4-21.07 12.82-31.56 19.19 14.42 30.57 47.81 46.53 80.76 39.28 21.75-4.78 35.26-17.91 39.98-39.6 1.44-6.61 1.85-13.55 1.87-20.34.16-42.32.09-84.64.07-126.96 0-1.79-.15-3.57-.24-5.64-13.57-.01-26.79-.01-40.64-.01z" fill="#fff"/>
    <path d="M468.24 406.98c-9.84 6.31-19.74 12.67-29.88 19.18-1.34-1.94-2.56-3.7-3.78-5.45-6.29-9.01-15.04-12.29-25.67-10.75-6.59.95-11.6 4.43-13.69 10.91-2.14 6.63-1.38 13.28 4.06 17.94 4.35 3.72 9.57 6.58 14.73 9.17 12.34 6.18 25.19 11.39 37.24 18.06 14.58 8.07 24.89 20.02 27.71 37.12 5.81 35.12-13.48 61.03-48.79 65.83-11.66 1.59-23.26 1.57-34.77-1.01-22.3-5-37.92-18.37-48.43-38.89 10.17-6.79 20.24-13.5 30.35-20.24 3.52 4.78 6.61 9.54 10.25 13.83 9.99 11.79 22.8 15 37.44 11.22 7.3-1.89 12.45-6.56 13.74-14.27 1.31-7.78-.59-14.99-7.48-19.35-6.85-4.33-14.37-7.6-21.6-11.33-10.18-5.25-20.89-9.7-30.46-15.89-29.15-18.87-28.57-58.54-12.78-77.55 9.34-11.24 21.47-17.27 35.61-19.23 11.64-1.62 23.27-1.09 34.58 2.63 13.51 4.44 25.32 14.81 31.62 28.07zm-182.75-31.17h40.65c.09 2.07.24 3.86.24 5.64.01 42.32.09 84.64-.07 126.96-.03 6.79-.44 13.73-1.87 20.34-4.71 21.7-18.23 34.82-39.98 39.6-32.96 7.24-66.35-8.71-80.76-39.28 10.49-6.38 21.04-12.8 31.56-19.19 2.85 3.52 5.24 6.93 8.1 9.91 7.18 7.5 16.16 10.27 26.37 9.06 8.77-1.04 13.86-6.37 15.09-15.97.53-4.12.64-8.31.65-12.47.05-39.32.03-78.64.03-117.97-.01-2.1-.01-4.22-.01-6.63z"/>
</svg>
