<svg xmlns="http://www.w3.org/2000/svg" viewBox="0 0 612 792">
    <path d="M178.49 199.76c-2.71 11.47-6.04 22.43-7.8 33.64-4.33 27.71-.04 54.62 11.42 79.95 26.41 58.35 71.42 95.17 133.65 109.2 37.71 8.5 75.18 5.49 110.29-12.85 12.07-6.31 22.69-14.56 31.85-24.65.63-.7.95-1.69 1.98-2.02-7.72 17.16-18.8 31.74-32.6 44.21-24.68 22.31-53.87 33.83-86.83 37.67-98.49 11.47-178.36-62.37-195.72-138.13-8-34.93-5.78-68.53 13.39-99.64 5.91-9.55 13.44-18.14 20.37-27.38z"/>
    <path d="M262.24 170.78c-2.03 12.55-4.83 23.57-5.42 34.7-1.52 28.73 8.57 53.95 26.13 76.2 22.97 29.1 52.93 47.04 89.66 52.15 37.7 5.25 70.46-5.15 96.92-34.98-6.15 14.37-14.58 26.06-25.5 35.9-18.63 16.79-40.81 24.79-65.64 27.09-44.84 4.16-81.67-11.95-110.63-45.04-28.5-32.57-39.44-70.38-24.22-112.59 4.14-11.53 12-21.71 18.7-33.43zM220.91 583.3c3.44.25 6.67.48 10.57.76-1.59 5.98-2.87 11.46-4.62 16.78-.34 1.02-2.53 2.03-3.88 2.04-17.81.14-35.63.53-53.43-.01-19.59-.6-31.14-12.61-31.34-32.19-.17-15.8 3.9-30.7 12.44-44.07 12.78-20.04 39.23-28 61.18-18.75 15.88 6.69 24.04 23.52 19.47 41.85-2.77 11.08-6.73 21.88-10.39 33.59zm-35.09-.32v.04c2.66 0 5.36-.26 7.98.06 4.14.51 5.96-1.27 6.94-5.17 2.12-8.38 4.93-16.6 6.85-25.02 1.09-4.79 1.55-9.89 1.28-14.79-.35-6.17-4.04-10.37-10.03-12.37-10.82-3.61-23.01.35-28.91 9.98-6.25 10.21-8.84 21.53-7.92 33.45.67 8.68 6.05 13.4 14.82 13.78 2.99.15 5.99.04 8.99.04zm152.51-11.61c-1.72 8.15.95 12.22 8.77 12.58 10.14.48 20.32.25 30.48.32 1.96.01 3.92 0 6.74 0-1.25 6.21-2.2 11.72-3.57 17.13-.24.96-2.21 2.11-3.38 2.11-13.48-.08-27.03.39-40.42-.8-14.64-1.3-22.22-10.1-20.73-24.63 1.12-10.94 3.93-21.95 7.71-32.3 4.38-11.98 14.37-18.78 26.91-20.47 7.49-1.01 15.33-1.03 22.81-.03 11.88 1.57 18.3 9.32 18.15 21.31-.08 6.59-1.67 13.16-2.4 19.76-.44 3.96-2.4 5.15-6.31 5.09-13.16-.21-26.32-.08-39.48-.08-1.8.01-3.6.01-5.28.01zm2.87-16c8.44 0 16.19.03 23.94-.01 4.91-.03 6.57-1.88 4.72-6.38-.93-2.28-3.53-5.15-5.65-5.4-4.78-.56-9.93-.38-14.56.87-4.62 1.25-7.22 5.31-8.45 10.92zm-71.16-30.17c-1.28 6.51-2.39 12.17-3.51 17.83-1.76 8.82-3.59 17.63-5.25 26.47-.46 2.43-.54 4.97-.5 7.46.05 3.65 2.18 5.8 5.59 6.75.79.22 1.64.28 2.47.35 15.1 1.24 15.06 1.23 18.23-13.62 2.89-13.52 6-26.99 8.7-40.54.76-3.79 2.46-4.93 6.08-4.75 4.75.24 9.53.06 15.08.06-1.76 8.29-3.33 15.72-4.9 23.14-3.48 16.46-7.03 32.9-10.37 49.39-.75 3.72-2.22 5.28-6.26 5.18-10.83-.28-21.66-.02-32.5-.11-16.46-.14-24.8-8.29-23.14-24.76 1.44-14.19 4.66-28.23 7.62-42.23 2.66-12.61-.11-10.37 13.15-10.6 2.95-.06 5.89-.02 9.51-.02z"/>
    <path d="M333.2 155.33c-.83 5.63-2.44 11.32-2.38 16.99.31 30.19 14.72 52.78 39.51 68.71 19.46 12.5 41.02 16.92 63.99 12.1 8.62-1.81 16.09-6.07 22.89-12.36-7.09 14.56-23.73 26.4-41.29 29.67-40.42 7.53-82.32-17.93-94.18-57.22-6.2-20.56-1.45-44.48 11.46-57.89zm123.53 447.51c.96-4.03 1.43-7.32 2.54-10.38 2.04-5.6 1.62-10.92-.2-16.53-2.75-8.47-4.94-17.13-7.62-26.58 7.63 0 14.39-.15 21.13.15 1.05.05 2.45 1.99 2.93 3.32.98 2.76 1.44 5.7 2.38 9.68 1.71-2.3 2.8-3.66 3.77-5.09 9.02-13.19 18.09-26.34 26.96-39.62 1.88-2.82 3.99-4 7.38-3.88 6.64.23 13.29.07 21.02.07-1.38 2.07-2.25 3.52-3.26 4.87-13.51 17.95-26.83 36.06-40.67 53.75-5.98 7.64-10.68 15.6-12.05 25.26-.56 3.91-2.46 5.26-6.38 5.05-5.74-.3-11.51-.07-17.93-.07z"/>
    <path d="M472.9 544.42h-32.75c-14.24 0-14.25 0-17.12 13.87-2.7 13.03-5.51 26.05-7.98 39.12-.76 4.04-2.46 5.81-6.63 5.46-3.31-.28-6.67-.25-9.98-.01-4.37.31-5.04-1.65-4.21-5.44 4.89-22.43 9.74-44.88 14.4-67.36.71-3.41 2.01-4.77 5.57-4.72 13.65.17 27.3-.01 40.95.15 12.92.15 17.41 4.85 17.75 18.93zM74.78 634.23c1.47-6.17 2.44-11.24 3.99-16.12.43-1.36 2.53-2.96 3.99-3.1 8.18-.75 11.15-2.44 13.4-10.65 2.68-9.78 4.49-19.79 6.71-29.7 1.6-7.15 3.38-14.26 4.79-21.44.61-3.08 2.03-4.16 5.07-4.07 5.61.16 11.22.05 17.62.05-.91 4.48-1.62 8.18-2.41 11.86-3.31 15.29-6.62 30.58-10 45.86-.57 2.59-1.33 5.16-2.19 7.68-5.16 15.05-11.82 19.72-27.78 19.63-4.11-.02-8.23 0-13.19 0zm61.07-109.12c-1.28 5.91-2.29 11.08-3.61 16.16-.26.99-1.71 2.34-2.66 2.37-6.26.21-12.54.11-19.66.11 1.4-6.06 2.54-11.37 3.93-16.6.22-.84 1.58-1.93 2.44-1.95 6.26-.17 12.53-.09 19.56-.09z"/>
    <path d="M185.82 582.98c-3 0-6 .11-8.99-.02-8.77-.38-14.15-5.11-14.82-13.78-.92-11.92 1.67-23.25 7.92-33.45 5.9-9.64 18.09-13.6 28.91-9.98 5.98 2 9.68 6.2 10.03 12.37.28 4.9-.18 10-1.28 14.79-1.92 8.42-4.73 16.64-6.85 25.02-.99 3.89-2.8 5.67-6.94 5.17-2.62-.32-5.32-.06-7.98-.06v-.06zm155.38-27.61c1.24-5.61 3.84-9.67 8.45-10.92 4.63-1.25 9.78-1.43 14.56-.87 2.12.25 4.72 3.12 5.65 5.4 1.84 4.5.19 6.35-4.72 6.38-7.76.04-15.5.01-23.94.01z" fill="#fff"/>
</svg>
