<svg xmlns="http://www.w3.org/2000/svg" viewBox="0 0 263 267">
    <path d="M9.42 134.11V29.28c0-10.05 8.02-18.11 18.07-18.11 69.41-.01 138.81-.01 208.22.01 7.06 0 12.7 2.83 16.44 8.98 1.72 2.82 2.42 5.98 2.42 9.27.01 45.38.01 90.75.01 136.13 0 24.46.01 48.92 0 73.38 0 5.35-1.87 9.97-5.84 13.58-3.73 3.4-8.25 4.79-13.25 4.79-39.92-.01-79.85-.01-119.77-.01-29.23 0-58.45.03-87.68-.02-7.2-.01-12.84-3.07-16.46-9.45-1.5-2.63-2.14-5.55-2.14-8.57-.02-35.05-.01-70.1-.02-105.15zm130.8-15.77c-.02-.37-.06-.86-.06-1.35-.01-3.91 0-7.81-.01-11.72 0-2.1-.03-2.12-2.17-2.12h-31.17c-2.22 0-2.25.02-2.26 2.21v113.78c0 2.04.03 2.06 2.06 2.06h32.56c2.32 0 2.32 0 2.32-2.35 0-19.07-.04-38.13.05-57.2.02-4.92.33-9.86 1.78-14.63 1.2-3.95 3.01-7.53 6.35-10.13 4.8-3.73 10.37-4.28 16.16-3.84 3.08.24 5.92 1.18 8.37 3.08 4.7 3.64 6.32 8.92 6.9 14.45.56 5.4.62 10.87.65 16.31.07 17.42.03 34.84.03 52.27 0 2.02.01 2.03 2.04 2.03h32.4c2.51 0 2.53 0 2.52-2.53-.15-24.4-.24-48.81-.51-73.21-.08-7.06-1.37-13.98-3.68-20.68-3.84-11.12-11.14-18.74-22.45-22.23-7.08-2.19-14.37-2.76-21.71-2.1-9.2.82-17.37 4.21-24.04 10.74-2.22 2.19-4.09 4.76-6.13 7.16zm-94.78 43.78c0 19.06.02 38.13-.03 57.19 0 1.47.39 1.92 1.88 1.91 11.05-.06 22.11-.06 33.17 0 1.6.01 1.99-.54 1.98-2.04-.03-38.03-.03-76.05 0-114.08 0-1.56-.49-2.01-2.03-2.01-10.95.06-21.91.03-32.86.03-2.11 0-2.11.01-2.11 2.1v56.9zm18.51-74.51c11.64-.01 21.28-9.7 21.29-21.43.02-11.79-9.65-21.55-21.34-21.55-11.74 0-21.47 9.72-21.48 21.45 0 11.86 9.68 21.54 21.53 21.53z"/>
</svg>
