<svg version="1.1" id="Layer_1" xmlns="http://www.w3.org/2000/svg" x="0" y="0" viewBox="0 0 405 434" xml:space="preserve">
    <style>
        .st0{fill:#fff}
    </style>
    <path d="M153.68 396.33c4.91-2.12 9.48-3.4 13.24-5.91 4.7-3.13 8.18-1.73 12.26.93 6.21 4.06 12.76 7.61 19.09 11.49 2.33 1.43 4.3 1.43 6.7.03 20.74-12.1 41.53-24.11 62.33-36.12 11.94-6.9 23.91-13.76 35.9-20.57 2.58-1.47 3.88-3.24 3.87-6.43-.11-37.94-.1-75.89-.05-113.83 0-2.66-1.01-4.25-3.28-5.54-24.84-14.25-49.63-28.58-74.44-42.88-8.35-4.82-16.76-9.54-25.03-14.51-2.44-1.47-4.24-.47-6.14.63-6.93 4-13.8 8.11-20.73 12.12-25.88 14.96-51.77 29.9-77.68 44.82-2.22 1.28-3.14 2.85-3.12 5.59.17 19.89.14 39.78.15 59.67.01 18.35 0 36.69-.05 55.03 0 1.87.3 3.36 2.1 4.38 9.64 5.48 19.2 11.12 28.91 16.47 4.15 2.29 8.79 2.97 13.45 1.69 6.16-1.69 9.84-6.65 9.85-13.03.01-37.66.01-75.31.01-112.97 0-5.21.48-5.68 5.58-5.69 2.7-.01 5.41-.03 8.11-.01 4.07.02 4.58.5 4.58 4.45.01 24.52 0 49.05 0 73.57 0 14.19.03 28.39-.01 42.58-.01 5.69-1.35 11.12-3.93 16.17-3.91 7.67-10.63 11.4-18.82 12.93-11.4 2.12-21.77-.82-31.58-6.45-8.28-4.75-16.56-9.5-24.83-14.28-7.31-4.23-10.92-10.52-10.9-19.03.05-38.72.12-77.43-.05-116.15-.04-9.43 3.9-15.94 11.95-20.5 13.59-7.71 27.06-15.62 40.59-23.42 19.96-11.51 39.9-23.07 59.93-34.47 7.11-4.05 14.42-3.68 21.48.38 22.25 12.78 44.48 25.58 66.7 38.41 11.27 6.51 22.49 13.12 33.77 19.62 7.75 4.47 11.45 11.24 11.46 20.03.05 38.52.07 77.05-.03 115.57-.02 8.52-3.67 15.2-11.26 19.55-18.23 10.47-36.43 20.99-54.64 31.5-15.36 8.87-30.71 17.77-46.09 26.61-7.59 4.37-15.27 4.31-22.8-.1-11.06-6.49-22.05-13.11-33.05-19.7-1.04-.62-1.95-1.45-3.5-2.63zM292.32 69.64c0 16.12-.04 32.25.03 48.37.01 2.67-.74 4.36-3.26 5.77-10.8 6.06-21.46 12.39-32.16 18.63-2.4 1.4-4.56 1.56-7.16.03-10.5-6.19-21.12-12.19-31.73-18.21-2.57-1.46-3.85-3.28-3.8-6.46.18-12.64.11-25.29.06-37.94-.01-2.39.87-3.87 2.98-5.07 10.51-6 20.95-12.12 31.39-18.23 2.95-1.72 5.77-2.42 8.81-.05 1.5 1.17 3.33 1.92 5.03 2.8 2.83 1.46 3.4 1.14 3.47-1.95.05-2.03.05-4.05.05-6.08 0-14.58-.01-29.16.01-43.73.01-3.69 1.76-4.64 4.94-2.84 5.61 3.17 11.2 6.36 16.89 9.38 3.11 1.65 4.59 3.73 4.54 7.51-.21 16.02-.09 32.05-.09 48.07zm-26.29 30.49c.02-8.08-.26-7.69-5.83-11.66-4.85-3.46-8.63-3.47-13.74-.3-4.4 2.73-6.57 5.21-6.49 10.7.08 5.38 1.25 8.56 6.32 11.3 4.82 2.6 8.27 3.6 13.26.36 4.49-2.91 8.21-5.31 6.48-10.4z"/>
    <path d="M229.53 228.86c9.61-.12 19.11.78 28.14 4.21 13.84 5.27 20.85 16.48 21.67 30.36.14 2.37-.92 3.34-3.25 3.29-3.47-.07-6.97-.23-10.42.05-3.16.26-4.43-1.05-5.15-3.97-1.79-7.21-5.95-12.57-13.3-14.7-7.95-2.31-16.17-2.85-24.34-1.81-4.7.6-9.37 1.98-13.85 3.57-3.3 1.17-5.29 4.1-6.22 7.53-1.48 5.44.18 9.82 5.57 11.29 8.42 2.31 17.06 3.88 25.67 5.33 10.72 1.81 21.56 2.97 31.9 6.62 17.88 6.29 20.52 23.13 15.64 37.15-3.7 10.63-12.14 16.25-22.28 19.35-17.98 5.5-36.15 5.03-54.14.01-7.61-2.12-14.49-5.94-19.26-12.58-4.46-6.22-6.77-13.13-6.08-20.89.14-1.62.83-2.52 2.51-2.52 4.25 0 8.49.02 12.74-.02 2.64-.02 2.53 2.07 3.11 3.76 1.06 3.07 1.89 6.31 3.49 9.08 2.86 4.94 7.91 7 13.19 8.04 11.52 2.28 23.14 2.59 34.67.09 2.87-.62 5.76-1.77 8.26-3.29 5.14-3.11 7.18-9.05 5.66-14.83-1.12-4.27-4.69-5.98-8.25-6.9-6.97-1.79-14.09-3.04-21.19-4.3-10.13-1.79-20.39-2.92-30.4-5.22-7.53-1.73-14.34-5.56-17.82-13.09-6.39-13.82-3.07-32.92 15.71-40.89 7.73-3.27 16.17-4.78 28.02-4.72zM187.75 98.31c0 6.47-.07 12.94.03 19.41.04 2.53-.97 4-3.19 5.25-10.49 5.92-20.9 11.97-31.28 18.08-2.55 1.5-4.73 1.93-7.48.29-10.92-6.49-22.01-12.71-32.89-19.26-1.26-.76-2.28-3-2.3-4.56-.19-12.74-.11-25.49-.13-38.23 0-2.54 1.4-4.06 3.47-5.24 9.37-5.35 19-10.33 27.98-16.27 5.6-3.71 9.76-3.19 15.11.28 9.13 5.9 18.74 11.06 28.21 16.42 1.88 1.06 2.5 2.39 2.48 4.43-.07 6.47-.03 12.94-.03 19.41.01-.01.01-.01.02-.01zM6.27 104.54c0-8.59.04-17.18-.03-25.78-.02-2.27.75-3.81 2.74-4.95 10.82-6.2 21.61-12.47 32.42-18.72 2.73-1.58 5.11-1.47 8.01.27 10.54 6.33 21.34 12.22 31.9 18.52 1.44.86 2.85 3.13 2.87 4.76.21 17.47.15 34.95.12 52.42 0 2.79-1.82 3.86-4.15 2.52-6.33-3.63-12.58-7.41-18.99-10.9-2.53-1.38-3.22-3.3-3.21-5.88.02-7.43-.06-14.87.04-22.3.04-2.76-1.01-4.58-3.47-5.76-1.64-.79-3.42-1.51-4.76-2.69-3.26-2.89-6.27-1.92-9.37.09-1.45.94-2.83 2.1-4.41 2.69-3.11 1.16-3.78 3.57-3.79 6.41-.03 7.43-.12 14.87.05 22.3.06 2.6-.98 4.13-3.1 5.32-5.94 3.35-11.88 6.7-17.75 10.16-3.44 2.02-5.3.83-5.18-3.01.23-8.47.06-16.97.06-25.47zm311.87-5.66c0-6.37.07-12.74-.04-19.11-.04-2.57.71-4.38 3.03-5.7 10.86-6.16 21.67-12.4 32.48-18.63 2.49-1.43 4.7-1.28 7.26.24 10.32 6.13 20.75 12.06 31.17 18.01 2.43 1.39 4.02 2.98 3.65 6.14-.32 2.76-.12 5.59-.07 8.39.04 2.03-.75 3.4-2.57 4.43-6.1 3.45-12.12 7.04-18.18 10.57-3.77 2.19-6.02 1.13-5.51-3.16.79-6.63-1.34-10.59-7.68-13.3-3.55-1.51-5.79-2.08-9.6-.34-6.68 3.04-9.11 7.2-8.33 14.45.4 3.77 1.3 5.95 4.69 7.79 10.2 5.56 20.2 11.49 30.22 17.37.95.56 2.12 1.8 2.09 2.69-.03.9-1.27 2.02-2.25 2.58-6.33 3.63-12.77 7.08-19.11 10.7-1.91 1.09-3.64 1-5.43-.03-9.76-5.57-19.36-11.44-29.32-16.61-5.15-2.67-7.24-5.95-6.59-11.74.55-4.86.11-9.83.11-14.75 0 .01-.01.01-.02.01zm38.49 79.83c0-10.65 8.4-19.33 18.86-19.28 10.53.05 19.46 7.44 19.49 19.3.03 11.97-8.98 19.52-19.38 19.43-12.22-.12-19.53-10.15-18.97-19.45zm2.6-.06c-.71 8.3 6.7 16.84 16.43 16.93 9.02.09 16.96-7.91 16.99-16.72.03-9.05-7.68-16.82-16.74-16.89-9.22-.06-16.67 7.38-16.68 16.68z"/>
    <path d="M364.19 98.41c-.29 4.11-3.76 8.04-7.38 8.08-3.37.04-7.09-4.02-6.98-7.8.05-1.66-.1-3.86.85-4.83 1.53-1.57 3.91-3.24 5.89-3.18 2.24.07 4.7 1.67 6.53 3.23.96.8.77 2.96 1.09 4.5z"/>
    <path class="st0" d="M266.03 100.13c1.73 5.09-1.99 7.49-6.48 10.4-4.99 3.24-8.45 2.24-13.26-.36-5.06-2.74-6.24-5.92-6.32-11.3-.08-5.49 2.09-7.98 6.49-10.7 5.11-3.17 8.89-3.16 13.74.3 5.57 3.97 5.85 3.58 5.83 11.66zm93.2 78.52c.01-9.29 7.46-16.74 16.67-16.68 9.06.06 16.77 7.83 16.74 16.89-.02 8.81-7.97 16.82-16.99 16.72-9.72-.1-17.12-8.63-16.42-16.93zm22.26-.6c1.87-1.57 2.81-4.22 1.33-7.19-1.36-2.73-4.1-2.89-6.78-2.86-1.74.01-3.5-.14-5.2.09-.72.1-1.9.96-1.92 1.5-.14 5.98-.14 11.97 0 17.95.01.56 1.21 1.52 1.84 1.51.61-.01 1.5-.94 1.72-1.64.3-.97.13-2.1.08-3.16-.08-1.96-.08-3.69 2.7-3.69 2.38 0 3.96.63 4.07 3.32.03.86.33 1.72.35 2.58.04 2.51 1.18 3.24 4.03 2.21-.7-3.31-1.38-6.59-2.22-10.62z"/>
    <path d="M381.49 178.05c.84 4.03 1.53 7.31 2.21 10.59-2.84 1.04-3.99.3-4.03-2.21-.01-.86-.31-1.71-.35-2.58-.1-2.68-1.68-3.31-4.07-3.32-2.78 0-2.77 1.73-2.7 3.69.04 1.06.22 2.19-.08 3.16-.22.7-1.11 1.64-1.72 1.64-.64.01-1.83-.95-1.84-1.51-.13-5.98-.13-11.97 0-17.95.01-.54 1.19-1.41 1.92-1.5 1.71-.23 3.47-.07 5.2-.09 2.68-.02 5.42.14 6.78 2.86 1.49 3 .55 5.65-1.32 7.22zm-9.38-3.7c-.22 2.18.3 3.61 2.9 3.52 2.79-.1 4.61-1.48 4.5-3.78-.15-3.01-2.32-2.93-4.56-3.1-2.73-.21-3.06 1.29-2.84 3.36z"/>
    <path class="st0" d="M372.11 174.35c-.22-2.07.1-3.56 2.85-3.36 2.23.17 4.41.09 4.56 3.1.11 2.3-1.7 3.67-4.5 3.78-2.61.09-3.13-1.34-2.91-3.52z"/>
</svg>
