<svg xmlns="http://www.w3.org/2000/svg" viewBox="0 0 464.94 382.57">
    <path d="M178.45 147.43h99.46v-3.16c0-5.57-.02-11.14.01-16.71.02-3.61 1.23-5.24 4.79-6.14 1.96-.49 4.02-.84 6.04-.84 8.81-.01 17.63-.09 26.43.28 6.3.26 7.94 2.32 7.95 8.51.02 6.96-.04 13.92.05 20.88.01 1.01.36 2.21.98 2.98 14.77 18.48 30.04 36.57 44.28 55.44 15.47 20.5 30.09 41.65 44.88 62.66 9.37 13.32 9.2 13.44 9.2 29.53 0 22.18.01 44.36 0 66.54 0 9.81-5.36 15.17-15.13 15.17H49.07c-9.88 0-15.3-5.44-15.31-15.35-.03-25.15-.12-50.3.01-75.45.01-2.74.65-5.85 2.06-8.13 6.46-10.5 12.99-20.99 20.06-31.08 22.69-32.38 46.15-64.19 71.96-94.17 3.98-4.62 6.04-8.98 5.5-15.02-.46-5.25-.12-10.57-.09-15.86.02-3.45 1.23-5.16 4.55-6.06 1.77-.48 3.65-.82 5.48-.83 9-.02 17.99.07 26.99.19 1.28.02 2.58.32 3.82.69 3.13.95 4.35 2.62 4.37 5.93 0 6.59-.02 13.16-.02 20zm116.77 93.16c-.06-7.33-6.13-13.31-13.35-13.16-7.27.16-12.96 5.94-12.99 13.2s6.06 13.27 13.32 13.16c7.18-.11 13.08-6.09 13.02-13.2zm-13.05 32.04c-7.3-.09-13.22 5.78-13.29 13.17-.07 7.11 5.84 13.09 13.03 13.19 7.09.1 13.21-5.83 13.32-12.92.11-7.3-5.76-13.35-13.06-13.44zm-13.29-77.17c.03 7.25 5.78 13.03 13.05 13.1 7.31.07 13.33-5.9 13.29-13.17-.04-7.17-5.94-13.09-13.08-13.15-7.29-.06-13.28 5.92-13.26 13.22zm-108.43 45.3c.02 7.2 5.88 13.03 13.11 13.04 7.16.01 13.12-5.91 13.14-13.05.02-7.36-5.89-13.35-13.15-13.32-7.35.03-13.12 5.9-13.1 13.33zm80.46 45.18c.14-7.2-5.56-13.15-12.8-13.35-7.13-.2-13.32 5.64-13.49 12.71-.17 7.34 5.53 13.4 12.85 13.66 7.21.25 13.29-5.65 13.44-13.02zm0-45.48c-.04-7.22-5.91-13.08-13.1-13.06-7.27.02-13.29 6.08-13.19 13.3.09 7.19 5.96 13.01 13.16 13.06 7.28.04 13.17-5.92 13.13-13.3zm-80.46 45.43c-.02 7.19 5.85 13.07 13.06 13.1 7.14.03 13.18-5.93 13.2-13.01.02-7.4-5.78-13.31-13.11-13.35-7.31-.04-13.13 5.83-13.15 13.26zm80.46-90.44c.03-7.24-5.74-13.14-12.94-13.23-7.22-.1-13.36 5.94-13.36 13.15s5.78 13.08 12.99 13.18c7.36.09 13.28-5.74 13.31-13.1zm-80.46.08c.04 7.3 5.86 13.08 13.13 13.03 7.29-.04 13.11-5.86 13.11-13.1 0-7.35-6.03-13.34-13.32-13.22-7.25.12-12.96 5.98-12.92 13.29z"/>
    <path d="M95.3 152.49H.49c.27-5.58.4-11.02.8-16.43 1.41-18.94 5.56-37.2 14.06-54.31C27.62 57.03 46.91 39.47 71.26 27.1c20.8-10.56 43.01-16.56 65.88-20.41C176.02.14 215.24-.72 254.52.42c18.16.53 36.34 1.69 54.4 3.59 29.28 3.08 57.83 9.45 84.41 22.72 25.42 12.7 45.35 31.04 57.59 57.05 10.12 21.49 13.67 44.34 13.69 67.88 0 .17-.09.35-.2.74h-95.12c-.7-5.43-1.24-10.86-2.11-16.23-1.94-11.87-5.07-23.38-11.25-33.85-9.14-15.48-23.3-23.66-40.34-27.65-13.27-3.1-26.79-4.09-40.33-4.28-28.76-.41-57.53-.62-86.3-.54-13.92.04-27.78 1.38-41.33 5-25.26 6.75-40.47 23.48-47.05 48.25-2.39 9-3.39 18.38-5.03 27.59-.08.54-.15 1.08-.25 1.8zM0 163.79h95.56c2.66 15.93-7.02 29.4-22.9 31.07-16.45 1.74-33 1.67-49.46.01C9.85 193.52 2.16 185.4.69 172.08c-.3-2.65-.45-5.32-.69-8.29zm464.94.03c-.04 6.5-.64 12.63-3.76 18.23-3.93 7.05-10.52 10.18-18.06 10.96-17.55 1.81-35.21 2.18-52.71-.13-14.3-1.89-20.72-10.26-21.5-25.58-.06-1.09-.01-2.19-.01-3.48h96.04z"/>
    <path d="M295.22 240.59c.06 7.11-5.84 13.09-13.02 13.21-7.26.11-13.36-5.9-13.32-13.16.03-7.27 5.72-13.05 12.99-13.2 7.22-.16 13.28 5.82 13.35 13.15zm-13.05 32.04c7.3.09 13.17 6.14 13.06 13.44-.11 7.09-6.23 13.02-13.32 12.92-7.19-.1-13.09-6.08-13.03-13.19.07-7.39 5.99-13.26 13.29-13.17zm-13.29-77.17c-.03-7.3 5.97-13.28 13.26-13.22 7.15.06 13.04 5.98 13.08 13.15.04 7.28-5.97 13.24-13.29 13.17-7.26-.07-13.02-5.85-13.05-13.1zm-108.43 45.3c-.02-7.43 5.74-13.3 13.1-13.33 7.25-.03 13.16 5.96 13.15 13.32-.02 7.14-5.98 13.06-13.14 13.05-7.23-.01-13.09-5.84-13.11-13.04zm80.46 45.18c-.15 7.37-6.23 13.27-13.44 13.02-7.32-.25-13.03-6.32-12.85-13.66.17-7.07 6.36-12.9 13.49-12.71 7.23.2 12.94 6.15 12.8 13.35zm0-45.48c.04 7.39-5.85 13.34-13.14 13.3-7.2-.04-13.07-5.86-13.16-13.06-.1-7.22 5.92-13.29 13.19-13.3 7.19-.02 13.07 5.84 13.11 13.06zm-80.46 45.43c.02-7.43 5.84-13.3 13.15-13.26 7.33.04 13.13 5.95 13.11 13.35-.02 7.08-6.06 13.04-13.2 13.01-7.21-.03-13.08-5.91-13.06-13.1zm80.46-90.44c-.03 7.36-5.95 13.19-13.3 13.09-7.21-.1-13-5.97-12.99-13.18 0-7.21 6.14-13.24 13.36-13.15 7.19.1 12.95 6 12.93 13.24zm-80.46.08c-.04-7.31 5.66-13.17 12.93-13.29 7.28-.12 13.32 5.87 13.32 13.22 0 7.24-5.82 13.06-13.11 13.1-7.28.04-13.09-5.73-13.14-13.03z" fill="#fff"/>
</svg>
