<svg xmlns="http://www.w3.org/2000/svg" viewBox="0 0 347 394">
    <path d="M267.93 96.06c1.38-10.26 3.07-20.33 4-30.46 1.24-13.36.56-26.66-4.16-39.41C263.63 15.01 256.6 6.51 244.1 4.9c-5.43-.7-11.25-.28-16.62.88-15.68 3.39-28.8 12.08-41.33 21.64-5.32 4.05-10.31 8.53-15.22 12.62-7.97-6.17-15.51-12.49-23.54-18.13-11.9-8.35-24.63-15.09-39.35-17.08-14.9-2.02-26.95 4-32.73 17.79-3.03 7.22-4.82 15.19-5.81 22.99-2 15.73.44 31.3 3.77 46.67.78 3.61-.32 4.53-3.48 5.66-8.43 3-16.84 6.16-24.93 9.94-12.02 5.61-23.14 12.66-31.87 22.96-11.36 13.41-11.68 28.62-.28 42.03 3.99 4.69 8.7 8.94 13.67 12.6 13.36 9.86 28.53 16.16 44.25 21.16 2.85.91 3.67 1.99 3.04 4.94-1.28 6.08-2.43 12.21-3.18 18.38-1.9 15.67-2.3 31.32 2.82 46.56 6.25 18.64 20.07 26.51 39.28 22.4 15.97-3.42 29.42-11.89 42.2-21.56 5.63-4.26 10.93-8.95 16.13-13.25 7.5 5.88 14.62 11.94 22.23 17.31 11.76 8.3 24.25 15.26 38.73 17.69 17.19 2.89 30.09-4.24 36-20.51 2.19-6.02 3.57-12.46 4.32-18.83 1.95-16.38-.4-32.54-3.84-48.54-.59-2.73.1-3.65 2.61-4.53 7.27-2.56 14.56-5.14 21.59-8.28 13.5-6.02 26.19-13.37 35.93-24.86 11.83-13.96 11.67-29.46-.3-43.25-9.35-10.77-21.28-17.94-34.05-23.72-8.57-3.89-17.49-7.05-26.21-10.52zM19.45 333.73v51.43h10.33v-18.82c4.96-.54 4.96-.54 7.46 3.17 3.12 4.64 6.2 9.31 9.42 13.88.63.89 1.77 1.91 2.73 1.98 3.28.25 6.58.09 10.54.09-4.72-7.17-9.05-13.75-13.46-20.46.89-.37 1.45-.59 2.01-.84 6.52-2.93 9.12-8.65 8.12-17.86-.68-6.22-4.26-10.56-11-11.29-8.59-.95-17.29-.9-26.15-1.28zm286.5 8.59c-5.13-8.5-15.13-10.16-23.78-8.81-8.8 1.37-13.29 6.15-13.92 14.01-.59 7.26 3.23 12.12 11.84 14.92 3.66 1.19 7.39 2.14 11.05 3.31 2.99.96 5.61 2.4 5.26 6.19-.36 3.85-3.4 4.59-6.4 5.08-6.04.99-10.95-1.16-14.8-6.12-2.71 2.08-5.23 4.02-8.43 6.48 2.76 2.31 4.91 4.92 7.67 6.25 7.85 3.78 16.12 3.95 24.23.82 4.71-1.82 7.5-5.56 8.26-10.68 1.33-8.94-2.03-14.63-10.62-17.52-4.23-1.42-8.6-2.41-12.85-3.77-2.46-.79-4.63-2.11-4.3-5.26.32-3.06 2.58-3.98 5.16-4.49 5.79-1.13 10.42.86 13.92 5.64 2.73-2.14 5.15-4.04 7.71-6.05zm-205.42 26.15c-.18-3.19-.22-5.78-.5-8.35-.92-8.47-5.67-13.47-13.54-14.38-10.37-1.2-17.41 2.35-20.26 10.52-2.23 6.4-2.29 13-.17 19.41 3.37 10.18 18.45 14.66 28.77 8.63 1.85-1.08 3.38-2.7 5.29-4.27-2.71-1.92-4.92-3.5-7.09-5.03-4.67 3.28-10.83 4.13-14.49 1.99-3.16-1.85-3.78-4.88-3.87-8.53 8.61.01 16.92.01 25.86.01zm39.88 16.84c0-9.48.21-18.56-.07-27.62-.22-7.2-3.85-10.79-11-11.76-1.72-.23-3.47-.5-5.2-.43-6.33.27-12.63.7-16.84 6.78.73.52 1.22.9 1.74 1.24 1.77 1.14 3.56 2.27 5.31 3.39 4.13-3.55 8.95-4.61 13.14-3.2 2.59.88 3.62 2.9 3.22 5.15-.15.86-2.46 1.63-3.9 1.94-4.12.88-8.42 1.05-12.4 2.31-5.93 1.88-8.64 7.17-7.71 13.63.78 5.47 4.68 8.96 10.66 9.72 5.25.67 9.69-1.27 14.05-4.52.29 1.39.51 2.41.71 3.38 2.78-.01 5.36-.01 8.29-.01zm43.02-33.78c-1.72-1.18-2.91-2.07-4.18-2.85-6.54-3.99-13.48-4.22-20.36-1.39-6.62 2.73-8.83 8.69-9.61 15.28-.23 1.96-.14 3.98-.07 5.96.55 15.28 16.43 23.62 29.48 15.44 1.6-1.01 2.91-2.49 4.6-3.97l-7.23-5.08c-3.7 3.71-8.07 4.17-12.44 2.24-4.5-1.99-4.43-6.51-4.66-10.61-.09-1.6.09-3.24.38-4.82 1.17-6.37 4.98-9.01 11.23-7.56 1.84.43 3.49 1.7 5.43 2.7 1.91-1.37 4.02-2.89 7.43-5.34zm47.73 33.57c4.39.54 8.3 1.51 12.17 1.4 11.81-.35 15.73-4.57 15.79-16.35.05-9.58.01-19.16.01-28.74v-7.02h-10.51v9.24c-.01 8.83.05 17.67-.06 26.5-.07 6.29-2.65 8.22-8.82 6.83-1.67-.38-3.31-.87-5.22-1.38-1.04 2.94-2.03 5.73-3.36 9.52zm-21.72-30.93v-7.58h-8.85v-10.63h-9.79v10.44c-1.86.19-3.28.34-4.65.48v7.05c1.63.15 3.06.28 4.9.45 0 7.13-.07 14.07.03 21.01.06 3.72.92 7.38 4.44 9.32 5.21 2.87 10.64 2.19 16.19.58-.58-2.7-1.07-4.97-1.59-7.36-1.79.28-3.24.63-4.7.72-2.64.16-4.53-1.15-4.6-3.78-.19-6.79-.06-13.59-.06-20.7h8.68z" fill="none" stroke="#454545" stroke-miterlimit="10"/>
    <path d="M267.93 96.06c8.72 3.47 17.64 6.63 26.22 10.51 12.77 5.78 24.7 12.94 34.05 23.72 11.97 13.78 12.12 29.29.3 43.25-9.73 11.49-22.43 18.84-35.93 24.86-7.03 3.14-14.32 5.71-21.59 8.28-2.5.88-3.19 1.8-2.61 4.53 3.44 16 5.79 32.16 3.84 48.54-.76 6.37-2.14 12.82-4.32 18.83-5.91 16.27-18.81 23.41-36 20.51-14.47-2.44-26.97-9.39-38.73-17.69-7.61-5.37-14.73-11.43-22.23-17.31-5.21 4.3-10.51 8.99-16.13 13.25-12.77 9.67-26.23 18.14-42.2 21.56-19.21 4.11-33.03-3.76-39.28-22.4-5.11-15.24-4.72-30.89-2.82-46.56.75-6.17 1.89-12.3 3.18-18.38.62-2.96-.19-4.04-3.04-4.94-15.72-5-30.89-11.3-44.25-21.16-4.96-3.66-9.68-7.91-13.67-12.6-11.4-13.4-11.08-28.62.28-42.03 8.72-10.3 19.85-17.35 31.87-22.96 8.1-3.78 16.51-6.94 24.93-9.94 3.16-1.12 4.26-2.04 3.48-5.66-3.33-15.37-5.77-30.95-3.77-46.67.99-7.8 2.78-15.77 5.81-22.99C81.1 8.82 93.15 2.81 108.05 4.82c14.72 1.99 27.45 8.73 39.35 17.08 8.03 5.63 15.57 11.95 23.54 18.13 4.91-4.09 9.9-8.56 15.22-12.62 12.53-9.56 25.65-18.25 41.33-21.64 5.37-1.16 11.19-1.57 16.62-.88 12.5 1.6 19.53 10.11 23.67 21.29 4.72 12.75 5.39 26.05 4.16 39.41-.94 10.14-2.63 20.21-4.01 30.47zM170.9 206.6c9.08-.41 18.28-.7 27.46-1.35 1.68-.12 3.96-1.3 4.77-2.69 9.44-16.07 18.68-32.26 27.84-48.49.59-1.05.59-3.02-.01-4.06-9.23-16.19-18.55-32.33-28.04-48.37-.76-1.29-2.88-2.37-4.46-2.5a321.922 321.922 0 00-55.54.03c-1.49.13-3.51 1.11-4.22 2.32-9.48 16.19-18.8 32.47-28.03 48.81-.59 1.05-.58 3.03.02 4.08 9.16 16.09 18.47 32.1 27.72 48.13 1.16 2.01 2.71 2.89 5.13 2.96 9.09.24 18.15.72 27.36 1.13zm93.17-13.07c6.86-2.61 13.34-4.79 19.57-7.51 12.03-5.24 23.64-11.25 32.62-21.18 8.21-9.08 8.18-16.62-.11-25.62-9.6-10.42-21.95-16.6-34.72-22.01-5.67-2.4-11.57-4.27-17.15-6.3-.59.71-.81.87-.89 1.09-4.77 12.82-9.58 25.62-14.21 38.49-.43 1.19.01 2.88.5 4.17 3.15 8.25 6.51 16.42 9.64 24.68 1.68 4.39 3 8.91 4.75 14.19zM88.68 212.35c-3.35 14.46-5.33 29.05-4.24 43.92.57 7.71 1.83 15.3 6.06 22.06 2.32 3.71 5.54 5.94 9.91 6.52 6.39.85 12.38-.81 18.16-3.17 15.54-6.34 28.56-16.47 40.82-27.69.24-.22.26-.66.28-.72-7.59-9.13-15.41-17.83-22.38-27.17-3.63-4.86-7.45-7.28-13.55-7.98-11.57-1.34-23.02-3.73-35.06-5.77zm93.16-161.92c9.27 11.44 18.08 22.37 27.02 33.2.74.89 2.31 1.33 3.56 1.53 7.86 1.26 15.76 2.29 23.61 3.6 5.59.93 11.12 2.2 17.16 3.41 1.16-7.13 2.5-13.82 3.31-20.58 1.54-12.92 1.97-25.87-2.03-38.47-3.88-12.19-10.25-15.98-22.73-13.11-20.04 4.6-35.04 17.57-49.9 30.42zm-104.7 143c5.4-13.99 10.44-26.95 15.34-39.97.37-.97 0-2.4-.41-3.46-2.49-6.37-5.23-12.65-7.63-19.05-2.42-6.49-4.54-13.09-6.95-20.13-5.84 2.14-11.5 3.98-16.98 6.26-12.8 5.34-25.17 11.52-34.79 21.89-8.8 9.48-8.66 17.01.12 26.45.51.55 1.04 1.07 1.57 1.6 8.23 8.05 18.14 13.51 28.52 18.1 7.02 3.1 14.29 5.62 21.21 8.31zM159.88 50.6c-5.63-4.56-11.13-9.4-17.02-13.7-9.97-7.28-20.39-13.88-32.68-16.6-13.19-2.92-20.02 1.26-23.73 14.23-.07.24-.1.49-.16.73-4.04 16.2-2.42 32.34.47 48.47.51 2.86 1.27 5.68 1.81 8.07 12.62-2.1 24.59-4.38 36.65-5.95 4.84-.63 8.43-2.03 10.8-6.41 1.05-1.94 2.63-3.62 4.06-5.33 6.46-7.7 12.95-15.38 19.8-23.51zm93.26 161.86c-14.29 2.24-28.03 4.34-41.74 6.66-1.33.23-2.63 1.68-3.61 2.86-7.31 8.79-14.53 17.65-21.81 26.47-1.31 1.58-2.72 3.07-4.05 4.56 6.49 7.14 21.77 18.84 32.6 24.09 6.2 3.01 12.79 5.63 19.49 7.11 10.56 2.33 16.58-1.06 19.84-11.38 2.18-6.89 3.24-14.29 3.67-21.54.79-13.22-1.29-26.22-4.39-38.83zm-82.17 30.6c6.47-7.54 12.39-14.43 18.82-21.91h-37.85c6.53 7.51 12.5 14.38 19.03 21.91zM189.79 83.2c-6.71-7.71-12.72-14.61-19.17-22.03-6.39 7.44-12.37 14.4-18.92 22.03h38.09zm-97.83 23.5c3.24 9.34 6.23 17.98 9.47 27.33 6.44-11.21 12.39-21.58 18.82-32.77-9.72 1.87-18.58 3.57-28.29 5.44zm148.2 63.43c-6.47 11.27-12.42 21.66-18.85 32.87 9.72-1.93 18.67-3.71 28.29-5.63-3.22-9.27-6.19-17.86-9.44-27.24zm-18.9-68.9c6.56 11.29 12.49 21.52 18.91 32.57 3.18-9.36 6.1-17.95 9.21-27.11-9.63-1.87-18.45-3.59-28.12-5.46zm-119.83 69.11c-3.21 9.48-6.1 17.98-9.19 27.12 9.6 1.86 18.48 3.59 28 5.44-6-10.48-11.53-20.13-17.07-29.78-.36-.62-.77-1.22-1.74-2.78zM19.45 333.73c8.86.38 17.56.33 26.15 1.27 6.74.74 10.32 5.07 11 11.29 1.01 9.22-1.59 14.94-8.12 17.86-.56.25-1.13.47-2.01.84 4.41 6.71 8.74 13.29 13.46 20.46-3.95 0-7.26.15-10.54-.09-.97-.07-2.11-1.09-2.73-1.98-3.22-4.57-6.3-9.24-9.42-13.88-2.5-3.71-2.5-3.71-7.46-3.17v18.82H19.45v-51.42zm10.42 9.83v13.59c4.04-.24 7.87-.22 11.63-.77 3.71-.54 4.82-2.66 4.68-7.17-.11-3.42-1.77-5.43-5.16-5.61-3.59-.18-7.18-.04-11.15-.04zm276.08-1.24l-7.72 6.06c-3.5-4.78-8.13-6.77-13.92-5.64-2.58.5-4.84 1.43-5.16 4.49-.33 3.15 1.84 4.47 4.3 5.26 4.25 1.37 8.62 2.35 12.85 3.77 8.59 2.89 11.95 8.58 10.62 17.52-.76 5.11-3.55 8.86-8.26 10.68-8.11 3.13-16.38 2.95-24.23-.82-2.76-1.33-4.91-3.94-7.67-6.25 3.2-2.46 5.72-4.4 8.43-6.48 3.85 4.96 8.76 7.1 14.8 6.12 2.99-.49 6.03-1.23 6.4-5.08.36-3.8-2.26-5.24-5.26-6.19-3.66-1.17-7.4-2.12-11.05-3.31-8.61-2.8-12.42-7.66-11.84-14.92.64-7.87 5.12-12.64 13.92-14.01 8.66-1.36 18.66.3 23.79 8.8zm-205.42 26.15H74.68c.09 3.66.72 6.69 3.87 8.53 3.66 2.14 9.82 1.28 14.49-1.99 2.16 1.53 4.38 3.11 7.09 5.03-1.91 1.57-3.44 3.19-5.29 4.27-10.31 6.03-25.39 1.55-28.77-8.63-2.12-6.41-2.06-13.01.17-19.41 2.85-8.17 9.89-11.72 20.26-10.52 7.87.91 12.62 5.9 13.54 14.38.27 2.56.3 5.15.49 8.34zm-10.08-6.83c-.09-6.12-2.43-8.55-7.89-8.42-4.75.11-7.31 3.07-7.11 8.42h15zm49.96 23.67h-8.29c-.21-.97-.42-1.98-.71-3.38-4.36 3.26-8.8 5.19-14.05 4.52-5.98-.76-9.88-4.25-10.66-9.72-.92-6.46 1.78-11.75 7.71-13.63 3.98-1.26 8.29-1.44 12.4-2.31 1.43-.31 3.75-1.07 3.9-1.94.39-2.25-.63-4.27-3.22-5.15-4.18-1.42-9.01-.35-13.14 3.2-1.75-1.12-3.53-2.24-5.31-3.39-.52-.33-1-.71-1.74-1.24 4.2-6.08 10.51-6.51 16.84-6.78 1.72-.07 3.48.19 5.2.43 7.15.97 10.77 4.56 11 11.76.28 9.07.07 18.15.07 27.63zm-9.89-18.11c-3.64.68-7.12 1.03-10.4 2.03-2.8.86-4.01 3.31-3.49 6.24.57 3.22 3.11 3.53 5.75 3.37 6.66-.42 9.3-3.94 8.14-11.64zm52.91-15.67l-7.44 5.36c-1.94-.99-3.59-2.27-5.43-2.7-6.25-1.46-10.06 1.19-11.23 7.56-.29 1.58-.47 3.22-.38 4.82.23 4.1.16 8.62 4.66 10.61 4.37 1.93 8.74 1.47 12.44-2.24l7.23 5.08c-1.69 1.48-3 2.96-4.6 3.97-13.05 8.18-28.93-.16-29.48-15.44-.07-1.99-.16-4 .07-5.96.78-6.59 2.99-12.55 9.61-15.28 6.88-2.84 13.82-2.61 20.36 1.39 1.27.75 2.46 1.65 4.19 2.83zm47.73 33.57c1.34-3.79 2.32-6.58 3.36-9.53 1.91.51 3.55 1 5.22 1.38 6.18 1.39 8.75-.53 8.82-6.83.1-8.83.05-17.67.06-26.5v-9.24h10.51v7.02c0 9.58.03 19.16-.01 28.74-.06 11.78-3.98 16-15.79 16.35-3.88.12-7.78-.85-12.17-1.39zm-21.72-30.93h-8.69c0 7.11-.12 13.91.06 20.7.07 2.63 1.96 3.94 4.6 3.78 1.47-.09 2.91-.44 4.7-.72.51 2.38 1.01 4.66 1.59 7.36-5.55 1.6-10.99 2.29-16.19-.58-3.53-1.94-4.39-5.6-4.44-9.32-.1-6.94-.03-13.88-.03-21.01-1.83-.17-3.26-.3-4.9-.45v-7.05c1.37-.14 2.8-.29 4.65-.48v-10.44h9.79v10.63h8.85c.01 2.61.01 4.8.01 7.58z" stroke="#454545" stroke-miterlimit="10"/>
</svg>
