<svg xmlns="http://www.w3.org/2000/svg" viewBox="0 0 493.17 563.25">
    <path d="M222.29 520.81h4.48c67.68-.01 135.35-.06 203.03 0 36.1.03 63.36-28.49 63.36-66.52 0-128.8 0-257.6-.01-386.4 0-2.38-.11-4.77-.25-7.15C490.79 26.69 463.95 0 431.83 0 335.92 0 240.01.01 144.1.02c-34.66 0-62.12 28.9-62.14 65.54-.04 77.98-.01 155.97-.01 233.95 0 1.33.11 2.67.18 4.13h40.82c.06-1.28.16-2.38.16-3.48 0-77.73-.01-155.45-.02-233.18 0-14.45 8.59-23.53 22.3-23.53H429.6c13.99 0 22.42 8.95 22.42 23.75v385.95c0 15.55-8.24 24.2-23.07 24.2-53.98 0-107.96.01-161.94-.04-2.42 0-4.16.58-5.9 2.56-4.2 4.79-8.75 9.24-13.13 13.86-8.35 8.77-16.67 17.56-25.69 27.08zm30.01-347.26c25.48-5.35 36.59-27.6 35.18-46.46-1.63-21.78-17.78-38.64-38.24-40.25-19.88-1.57-38.26 12.77-42.86 33.72-2.69 12.24-.55 23.69 6.18 34.1 6.71 10.36 16.14 16.33 27.75 18.75-54.37 5.94-78.21 56.93-75.58 86.74h163.78c.16-16.98-4.19-33.1-13.85-48.03-14.95-23.11-36.01-35.68-62.36-38.57zM123.22 477.49v85.76c34.17-36.06 68.18-71.95 101.69-107.31-33.85-35.73-67.84-71.61-101.94-107.6v85.75H-.01v43.4h123.23zm40.96-173.51c0 8.14-.07 15.81.08 23.47.02 1.19.81 2.6 1.64 3.5 4.31 4.69 8.83 9.17 13.11 13.9 1.62 1.79 3.3 2.43 5.6 2.42 67.68-.05 135.36-.05 203.03-.05h23.05v-43.24H164.18zm58.11 86.79c13.81 14.49 26.87 28.25 40.03 41.89.86.89 2.52 1.28 3.81 1.28 47.17.07 94.35.07 141.52.06 1.01 0 2.03-.17 3.04-.26v-42.97h-188.4zm147.76-260.44v43.09h40.64v-43.09h-40.64zm-.15 129.96h40.81v-43.08H369.9v43.08z" fill="#fff"/>
    <path d="M222.29 520.81c9.02-9.52 17.34-18.31 25.68-27.08 4.38-4.61 8.93-9.07 13.13-13.86 1.74-1.98 3.48-2.56 5.9-2.56 53.98.06 107.96.04 161.94.04 14.83 0 23.07-8.65 23.07-24.2V67.2c0-14.81-8.43-23.75-22.42-23.75H145.38c-13.7 0-22.3 9.08-22.3 23.53.01 77.73.02 155.45.02 233.18 0 1.1-.1 2.2-.16 3.48H82.12c-.07-1.46-.18-2.8-.18-4.13-.01-77.98-.04-155.97.01-233.95C81.97 28.92 109.43.02 144.09.02 240.01.01 335.92 0 431.83 0c32.12 0 58.96 26.69 61.07 60.74.15 2.38.25 4.77.25 7.15.01 128.8.01 257.6.01 386.4 0 38.03-27.26 66.55-63.36 66.52-67.68-.06-135.35-.01-203.03 0h-4.48z"/>
    <path d="M252.3 173.55c26.36 2.89 47.41 15.46 62.36 38.57 9.66 14.93 14.01 31.05 13.85 48.03H164.73c-2.63-29.81 21.21-80.8 75.58-86.74-11.6-2.42-21.04-8.39-27.75-18.75-6.74-10.41-8.88-21.85-6.18-34.1 4.61-20.95 22.98-35.29 42.86-33.72 20.46 1.61 36.61 18.47 38.24 40.25 1.41 18.85-9.7 41.11-35.18 46.46zM123.22 477.49H0v-43.4h122.98v-85.75c34.1 35.99 68.09 71.87 101.94 107.6-33.51 35.36-67.52 71.25-101.69 107.31-.01-28.34-.01-56.86-.01-85.76zm40.96-173.51h246.51v43.24h-23.05c-67.68 0-135.36-.01-203.03.05-2.3 0-3.98-.63-5.6-2.42-4.27-4.73-8.79-9.21-13.11-13.9-.83-.9-1.62-2.31-1.64-3.5-.16-7.67-.08-15.33-.08-23.47zm58.11 86.79h188.4v42.97c-1.02.09-2.03.26-3.04.26-47.17.01-94.35.01-141.52-.06-1.29 0-2.95-.39-3.81-1.28-13.16-13.64-26.22-27.39-40.03-41.89zm147.76-260.44h40.64v43.09h-40.64v-43.09zm-.15 129.96v-43.08h40.81v43.08H369.9z"/>
</svg>
