<svg xmlns="http://www.w3.org/2000/svg" viewBox="0 0 1757.48 1298.6">
    <path d="M1300.73 653.62c-35.8.18-66.8 7.67-92.8 18.82-9.6-16.55-19.2-31.02-20.8-41.82-1.8-12.55-4-20.21-1.8-35.2 2.2-14.99 12.2-36.25 12.2-37.99-.2-1.57-2.2-9.24-22.8-9.41-20.6-.17-38.4 3.48-40.4 8.19-2 4.7-6 15.51-8.6 26.66-3.6 16.38-41.2 74.4-62.6 104.9-7-11.85-13-22.3-14.2-30.67-1.8-12.54-4-20.21-1.8-35.2 2.2-14.99 12.2-36.24 12.2-37.99-.2-1.57-2.2-9.24-22.8-9.41-20.6-.17-38.4 3.48-40.4 8.19-2 4.7-4.2 15.86-8.6 26.66-4.2 10.8-54.2 107.68-67.2 132.95-6.6 12.89-12.4 23.17-16.6 30.14-4.2 6.97-.2.52-.6 1.22-3.6 5.92-5.6 9.24-5.6 9.24v.18c-2.8 4.36-5.8 8.54-7.2 8.54-1 0-3-11.67.4-27.7 7.4-33.63 25.4-86.08 25.2-87.99 0-.87 3.4-10.11-11.6-14.81-14.6-4.7-19.8 3.14-21 3.14-1.2 0-2.2 2.79-2.2 2.79s16.2-59.07-31-59.07c-29.6 0-70.4 28.05-90.6 53.67-12.8 6.1-40 18.99-68.8 32.76-11 5.23-22.4 10.8-33.2 15.86l-2.2-2.09c-57.2-53.15-162.99-90.78-158.59-162.22 1.6-25.96 12-94.44 203.2-177.38 156.59-67.96 281.99-49.31 303.79-7.84 31 59.24-67 169.37-229.79 185.22-62 6.1-94.6-14.81-102.8-22.65-8.6-8.19-9.8-8.54-13-6.97-5.2 2.44-2 9.76 0 14.11 4.8 10.98 24.8 30.49 58.8 40.25 29.8 8.54 102.6 13.24 190.59-16.38 98.6-33.28 175.59-125.63 153-202.82-23-78.59-172.59-104.37-313.99-60.64-84.2 26.14-175.4 66.91-240.99 120.4-78 63.43-90.4 118.84-85.2 141.84 18.2 82.07 148 135.56 199.99 175.12-2.6 1.22-5 2.44-7.2 3.48-26 11.15-125 56.28-149.8 104.02-28 54.02 4.4 92.88 26 98.1 66.8 16.2 135.2-12.89 172.19-60.81 36.8-47.92 32.4-110.12 15.4-138.53l-.6-1.05 20.4-10.45c13.2-6.8 26.2-13.07 37.6-18.47-6.4 15.16-11 33.11-13.4 59.24-2.8 30.67 11.6 70.4 30.6 86.08 8.4 6.79 18.4 6.97 24.6 6.97 22 0 32-15.86 43-34.85 13.6-23.17 25.6-50.01 25.6-50.01s-15 72.66 26 72.66c15 0 30-16.9 36.8-25.61v.17s.4-.52 1.2-1.74a59.22 59.22 0 002.4-3.31v-.35c6-9.06 19.4-29.8 39.4-64.12 25.8-44.26 50.6-99.67 50.6-99.67s2.4 13.59 9.8 35.9c4.4 13.24 14 27.71 21.4 41.82-6 7.32-9.6 11.5-9.6 11.5l.2.17c-4.8 5.58-10.2 11.5-15.8 17.42-20.4 21.26-44.8 45.48-48 52.45-3.8 8.19-3 14.29 4.4 19.17 5.4 3.48 15 4.18 25.2 3.48 18.4-1.05 31.2-5.05 37.6-7.49 10-3.14 21.4-7.84 32.4-14.81 20-12.89 32.2-31.19 31-55.58-.6-13.42-5.6-26.66-11.8-39.21 1.8-2.27 3.6-4.53 5.4-6.97 31.6-40.25 56-84.51 56-84.51s2.4 13.59 9.8 35.89c3.8 11.33 11.4 23.7 18.2 35.9-29.6 21.08-48.2 45.48-54.6 61.51-11.8 29.62-2.6 43.04 14.8 46.18 7.8 1.39 19-1.74 27.4-4.88 10.4-2.96 23-8.02 34.6-15.51 20-12.89 39.2-30.84 38.2-55.06-.6-11.15-4-22.13-8.6-32.58 25.2-9.06 57.8-14.29 99.2-9.93 89 9.06 106.6 57.5 103.2 77.71-3.4 20.21-22 31.36-28.2 34.85-6.2 3.31-8.2 4.53-7.6 6.97.8 3.66 3.6 3.48 9 2.79 7.4-1.05 46.8-16.55 48.4-53.84 2.39-47.93-49.8-100.21-142.4-99.69z"/>
</svg>
