<svg xmlns="http://www.w3.org/2000/svg" viewBox="0 0 550.8 550.8">
    <path d="M468.58 197.09h-11.72V140.8c0-.35-.06-.7-.1-1.06-.02-2.23-.73-4.43-2.27-6.17l-94.12-107c-.03-.03-.06-.04-.08-.07-.56-.62-1.22-1.14-1.91-1.59-.2-.14-.41-.25-.63-.37-.6-.33-1.23-.6-1.89-.79-.18-.05-.34-.12-.51-.17-.71-.17-1.45-.27-2.2-.27h-231.3c-10.56 0-19.14 8.55-19.14 19.05v154.71h-11.7c-15.11 0-27.36 12.19-27.36 27.23v141.6c0 15.03 12.25 27.23 27.36 27.23h11.72v96.93c0 10.5 8.58 19.05 19.14 19.05h315.85c10.55 0 19.14-8.55 19.14-19.05v-96.93h11.72c15.1 0 27.36-12.2 27.36-27.23V224.32c0-15.04-12.25-27.23-27.36-27.23zM121.87 42.38H343.6v97.47c0 5.26 4.29 9.53 9.57 9.53h84.55v47.72H121.87V42.38zm214.17 179.99L287.9 364.62h-37.75l-45.81-142.25h35.42l17.39 60.15c4.88 16.88 9.33 33.13 12.73 50.86h.64c3.6-17.1 8.05-33.98 12.93-50.23l18.24-60.78h34.35zM96.4 358.08l6.57-26.59c8.69 4.43 22.06 8.86 35.84 8.86 14.85 0 22.69-6.12 22.69-15.4 0-8.87-6.79-13.93-23.97-20.05-23.75-8.23-39.23-21.32-39.23-41.99 0-24.28 20.36-42.85 54.07-42.85 16.12 0 28 3.37 36.48 7.17l-7.2 25.96c-5.73-2.75-15.9-6.75-29.91-6.75-13.99 0-20.79 6.34-20.79 13.72 0 9.08 8.05 13.09 26.51 20.05 25.23 9.29 37.11 22.37 37.11 42.42 0 23.85-18.44 44.11-57.68 44.11-16.32-.01-32.45-4.23-40.49-8.66zm341.32 126.84H121.87v-91.77h315.85v91.77zm31.29-126.84c-9.96 3.37-28.84 8.03-47.71 8.03-26.09 0-44.96-6.55-58.11-19.21-13.15-12.24-20.36-30.82-20.15-51.71.22-47.28 34.79-74.29 81.65-74.29 18.44 0 32.66 3.59 39.65 6.96l-6.79 25.76c-7.85-3.38-17.59-6.13-33.29-6.13-26.94 0-47.29 15.2-47.29 46.02 0 29.34 18.44 46.64 44.96 46.64 7.42 0 13.36-.85 15.9-2.11v-29.76H415.8v-25.11h53.22l-.01 74.91z"/>
</svg>
