<svg xmlns="http://www.w3.org/2000/svg" viewBox="0 0 612 792">
    <path d="M304.53 257c-3.96 3.01-7.91 6.04-11.88 9.04-18.52 13.97-36.73 28.39-55.7 41.74-12.46 8.77-25.91 16.18-39.15 23.8-4.68 2.69-9.93 4.57-15.12 6.13-16.86 5.05-28.09 20.22-27.7 37.92.38 16.94 12.39 31.79 28.99 35.84 16.91 4.12 34.3-3.57 42.64-18.92 4.43-8.16 8.83-16.52 15.9-22.62 9.19-7.93 18.85-15.37 28.72-22.43 6.86-4.91 9.67-3.84 13.85 3.71 7.04-14.37 13.98-28.54 20.92-42.71.21.07.42.15.63.22-.47 1.75-.91 3.5-1.41 5.24-9.34 32.58-18.61 65.17-28.1 97.7-1.8 6.19-4.28 12.21-6.88 18.12-.85 1.93-2.75 3.83-4.66 4.81-16.18 8.3-25.72 26.47-23.19 44.62 2.51 17.98 16.51 33.07 34.28 36.29 18.18 3.29 33.35-2.46 43.96-17.53 10.61-15.08 10.69-31.19 1.7-47.33-.82-1.47-1.65-3.4-1.41-4.94 3.33-20.63 8.21-40.89 16.38-60.18 3.86-9.12 9.52-17.28 17.2-23.62 3.68-3.04 8.19-5.29 12.65-7.11 3.77-1.54 7.58-.15 10.34 2.92 9.6 10.7 15.38 22.76 14.07 37.67-1.84 20.86 13.02 39.01 33.44 41.36 21 2.41 39.69-11.67 42.7-32.63 1.75-12.17-2-22.85-10.27-32.04-12.46-13.84-24.98-27.64-37.04-41.84-8.2-9.65-14.93-20.35-18.03-32.89-4.93-19.97-2.47-38.92 7.89-56.8 10.34-17.86 20.61-35.76 30.85-53.68 7.57-13.25 16.96-24.9 29.53-33.72 8.15-5.73 16.96-10.27 27.21-9.78 4.52.22 9.36 1.39 13.37 3.46 11.39 5.89 22.65 12.09 33.53 18.86 18.45 11.48 28.84 28.31 28.92 50.15.31 76.67.33 153.35.02 230.02-.09 22.09-10.33 39.55-29.46 50.47-69.07 39.43-138.33 78.52-207.71 117.4-19.71 11.05-40.36 11.12-60.13.07C206.95 575 137.65 535.98 68.47 496.74c-19.69-11.17-30.05-28.88-30.15-51.46-.31-76.12-.29-152.23-.02-228.35.08-22.87 10.48-40.68 30.42-51.98 69.09-39.16 138.29-78.14 207.61-116.9 19.77-11.05 40.15-10.58 60.15-.04 8.48 4.47 16.53 9.8 25.11 14.04 12.26 6.06 16.82 16.37 17.24 29.11.45 13.61-3.33 26.29-9.91 38.08-10.16 18.22-19.81 36.79-31.09 54.3-17.39 27-42.19 44-74.02 50.16-18.54 3.59-37.11 2.27-55.68.36-6.21-.64-12.42-1.56-18.65-1.8-18.45-.71-33.15 12.28-35.34 30.92-1.97 16.75 10.01 32.97 27.3 36.37 11.72 2.3 22.39-.6 30.63-9.37 4.05-4.31 8.69-6.68 14.13-7.44 11.58-1.63 23.22-2.76 34.83-4.18 1.49-.18 3.03-.66 4.35-1.36 12.11-6.45 24.17-12.99 36.25-19.49.83-.45 1.72-.79 2.59-1.19.11.15.21.31.31.48z"/>
</svg>
