<svg xmlns="http://www.w3.org/2000/svg" viewBox="0 0 612 792">
    <path d="M445.59 350.32c-1.6 0-2.8.1-3.97-.01-34.23-3.38-66.73 3.35-96.99 20.97-40.16 23.38-67.38 58.52-79.16 106.83-6.47 26.56-6.04 53.23.49 79.77.28 1.13.52 2.26.93 4.04-6.76.25-13.19.73-19.61.69-19.48-.13-38.54-4.01-57.42-8.68-6.65-1.64-12.11-.84-18.12 2.59-18.7 10.66-37.69 20.72-56.56 31.02-.67.37-1.35.71-2.81 1.48.44-1.76.65-2.81.96-3.83 5.69-18.6 11.3-37.22 17.18-55.75 1.04-3.27.35-4.73-2.09-6.64-22.35-17.52-42-37.95-55.76-64.21-22.96-43.8-25.34-89.45-8.28-135.98 14.68-40.02 41.17-69.1 75.2-90.29 33.91-21.11 70.66-30.78 109.64-30.59 45.87.22 88.3 13.29 126.32 41.48 32.71 24.26 56.62 56.02 67.92 97.95.79 2.94 1.39 5.94 2.13 9.16zm-99.33-31.98c.01-12.43-5.65-21.44-15.72-25.03-11.15-3.98-25.6.56-33.01 10.36-5.86 7.75-6.65 18.38-1.61 26.74 6.06 10.06 15.16 14.25 25.9 14.37 14.83.17 24.43-10.37 24.44-26.44zm-136.63-.14c-.06-12.83-6.13-22.32-16.74-25.17-10.95-2.93-21.02-.4-29.45 7.86-10.01 9.81-10.04 24.63-.28 34.72 6.1 6.3 13.57 9.1 21.9 9.2 14.88.17 24.65-10.46 24.57-26.61z"/>
    <path d="M551.09 690.01c-9.03-5.38-17.31-10.31-25.59-15.25-8.29-4.95-16.53-10.01-24.92-14.76-1.65-.93-3.97-1.24-5.82-.86-13.83 2.78-27.51 7.38-41.43 8.48-57.22 4.52-107.37-13.24-146.74-60.03-24.7-29.35-35.94-64.6-32.93-104.48 2.35-31.19 14-58.32 33.16-81.53 26.39-31.96 59.82-50.05 98.34-57.55 30.66-5.98 60.98-4.11 90.6 6.55 36.13 13.01 66.24 35.26 87.81 69.89 13.77 22.12 21.25 46.58 21.44 73.42.17 25.08-7.34 47.63-19.79 68.42-12.32 20.58-28.11 37.63-45.99 52.45-2.15 1.78-2.42 3.29-1.65 5.98 4.28 14.94 8.36 29.95 12.49 44.94.3 1.13.54 2.28 1.02 4.33zM386.21 488.77c3.88-1.16 7.99-1.8 11.6-3.6 7.03-3.5 11.82-9.29 11.83-18.22 0-8.78-4.76-14.37-11.57-18.06-2.52-1.36-5.36-2.22-8.14-2.76-11.33-2.2-22.97 7.25-23.97 19.27-.95 11.38 9.16 22.82 20.25 23.37zm109.11-42.94c-9.53-.13-17.06 5.34-20.42 13.53-3.05 7.44-1.59 15.16 4.1 21.77 8.43 9.78 23.81 9.19 33.06-1.28 6.49-7.34 6.68-17.69.37-25.23-5.02-6.03-11.51-8.53-17.11-8.79z"/>
    <path d="M346.26 318.34c-.01 16.07-9.61 26.61-24.43 26.44-10.73-.12-19.83-4.31-25.9-14.37-5.04-8.37-4.25-18.99 1.61-26.74 7.4-9.8 21.86-14.34 33.01-10.36 10.06 3.59 15.72 12.6 15.71 25.03zm-136.63-.14c.08 16.16-9.69 26.78-24.57 26.61-8.33-.09-15.8-2.89-21.9-9.2-9.77-10.09-9.74-24.91.28-34.72 8.42-8.25 18.5-10.79 29.45-7.86 10.61 2.84 16.68 12.34 16.74 25.17zm176.58 170.57c-11.1-.55-21.2-11.99-20.25-23.37 1.01-12.03 12.64-21.48 23.97-19.27 2.78.54 5.62 1.4 8.14 2.76 6.81 3.68 11.57 9.28 11.57 18.06 0 8.93-4.8 14.72-11.83 18.22-3.61 1.8-7.72 2.43-11.6 3.6zm109.11-42.94c5.59.26 12.08 2.76 17.12 8.78 6.31 7.55 6.12 17.9-.37 25.23-9.26 10.46-24.64 11.06-33.06 1.28-5.69-6.61-7.15-14.33-4.1-21.77 3.35-8.18 10.88-13.65 20.41-13.52z" fill="#fff"/>
</svg>
